<?xml version="1.0" standalone="no"?>
<!DOCTYPE svg PUBLIC "-//W3C//DTD SVG 20010904//EN"
 "http://www.w3.org/TR/2001/REC-SVG-20010904/DTD/svg10.dtd">
<svg version="1.0" xmlns="http://www.w3.org/2000/svg"
 width="112" height="112" viewBox="0 0 1125.000000 1274.000000"
 preserveAspectRatio="xMidYMid meet">

<g transform="translate(0.000000,1274.000000) scale(0.100000,-0.100000)"
fill="#000000" stroke="none">
<path d="M2930 12730 c8 -5 24 -10 34 -10 29 0 90 -23 99 -37 4 -7 16 -13 26
-13 10 0 35 -16 57 -35 37 -33 38 -35 17 -41 -14 -4 -23 -14 -23 -26 0 -13 5
-18 14 -15 17 7 52 -28 38 -37 -12 -7 -22 -55 -15 -73 3 -7 9 -10 14 -7 11 7
13 -6 9 -81 -2 -40 8 -143 14 -154 4 -6 -2 -20 -13 -32 -15 -17 -17 -24 -8
-34 10 -10 15 -9 25 9 12 18 13 19 6 1 -4 -11 -7 -28 -8 -37 0 -10 -4 -18 -8
-18 -12 0 -9 -22 5 -50 9 -17 11 -39 5 -68 -4 -26 -4 -51 2 -62 5 -10 9 -29 9
-42 -1 -13 1 -30 5 -39 4 -10 3 -20 -3 -24 -6 -3 -11 -17 -11 -30 0 -12 -7
-25 -15 -29 -26 -9 -17 -22 25 -36 31 -10 42 -20 49 -44 5 -17 10 -23 10 -13
1 25 19 21 23 -5 2 -13 0 -45 -3 -73 -4 -27 -2 -51 2 -53 13 -5 11 -30 -2 -34
-6 -2 -11 -17 -11 -33 0 -17 -4 -35 -9 -41 -6 -7 -4 -16 6 -24 14 -12 13 -15
-5 -32 -12 -11 -19 -27 -16 -36 16 -59 16 -82 1 -106 -11 -16 -14 -33 -10 -43
13 -29 14 -43 4 -49 -5 -3 -6 -10 -2 -17 13 -21 13 -171 0 -179 -9 -6 -9 -8 1
-8 6 0 12 -7 12 -15 0 -8 5 -24 12 -34 9 -15 8 -22 -4 -34 -16 -16 -13 -67 3
-67 5 0 9 -7 9 -15 0 -8 -5 -15 -11 -15 -5 0 -7 -5 -3 -12 7 -10 11 -55 15
-165 1 -24 -4 -50 -11 -58 -10 -12 -10 -15 4 -15 9 0 16 -4 16 -8 0 -14 -23
-32 -42 -32 -10 0 -18 -7 -18 -15 0 -8 5 -15 11 -15 20 0 48 -44 43 -66 -3
-12 0 -25 6 -29 7 -4 9 -18 5 -35 -4 -16 -1 -39 5 -50 8 -15 9 -25 2 -32 -6
-6 -8 -26 -5 -44 3 -19 1 -40 -6 -47 -8 -11 -7 -18 7 -30 15 -14 17 -30 14
-104 -4 -107 -2 -194 4 -205 3 -4 5 -38 5 -75 1 -37 6 -74 12 -82 9 -11 9 -13
1 -8 -15 9 -28 -23 -15 -36 5 -5 7 -34 4 -63 -4 -40 -3 -54 7 -54 9 0 7 -6 -5
-20 -15 -16 -16 -24 -7 -45 8 -16 8 -26 1 -31 -18 -11 23 -31 81 -40 l55 -9
-55 -5 c-30 -3 -63 -2 -72 2 -9 5 -34 8 -55 8 -22 0 -43 3 -49 8 -5 4 -34 5
-64 1 -33 -3 -42 -6 -23 -7 17 -1 44 -7 59 -12 15 -6 56 -12 92 -14 36 -1 67
-8 71 -15 4 -6 15 -9 24 -6 39 16 387 -56 409 -83 12 -15 11 -16 -5 -3 -14 11
-23 11 -42 3 -22 -10 -24 -14 -13 -31 11 -18 38 -18 38 0 0 4 6 6 13 3 15 -5
16 -71 1 -99 -15 -28 -11 -124 6 -135 7 -4 28 -6 46 -3 17 3 54 -2 80 -11 43
-14 130 -28 174 -28 8 0 41 -6 72 -14 32 -8 75 -14 95 -13 21 1 67 -3 103 -9
36 -7 84 -12 108 -12 39 0 41 1 30 20 -17 27 -83 50 -235 80 -49 10 -63 17
-63 31 0 13 -11 19 -44 24 -55 9 -55 6 -62 222 -3 93 -10 173 -16 178 -5 6
-63 9 -137 9 -96 -1 -135 -6 -159 -18 -31 -16 -50 -55 -38 -75 4 -5 -2 -12
-11 -14 -17 -4 -17 -5 0 -6 10 -1 21 9 26 23 9 21 29 36 50 36 7 0 31 -43 31
-55 0 -3 -15 -11 -32 -18 -23 -10 -40 -11 -58 -4 -59 23 -68 29 -63 48 5 18
-6 24 -31 20 -5 -1 -6 10 -4 24 5 21 2 25 -13 20 -24 -8 -36 19 -19 40 12 15
10 67 -6 123 -5 16 -3 22 7 20 9 -2 15 7 17 25 2 19 -1 27 -12 27 -9 0 -16 -7
-16 -16 0 -14 -3 -14 -15 -4 -20 17 -20 44 1 36 26 -10 35 3 19 28 -8 12 -12
26 -8 29 3 4 -1 7 -10 7 -23 0 -22 39 1 56 14 11 15 15 3 23 -10 6 -12 27 -8
85 4 42 3 76 -1 76 -4 0 -8 38 -10 84 -1 46 -5 102 -10 124 -6 27 -6 44 1 51
7 7 7 14 -1 24 -7 8 -9 16 -7 19 3 3 8 51 10 108 2 56 9 108 15 115 6 7 24 18
40 25 17 7 30 16 30 20 0 4 12 12 26 19 46 21 20 22 -41 2 -58 -19 -59 -19
-73 0 -7 10 -20 19 -28 19 -18 0 -18 9 2 31 17 19 21 43 11 82 -6 21 -4 27 8
27 8 0 15 5 15 10 0 6 -7 10 -16 10 -10 0 -14 5 -10 15 3 9 -1 18 -9 21 -19 8
-29 42 -17 57 19 24 22 76 6 92 -14 13 -13 15 5 15 27 0 27 26 1 33 -27 7 -25
27 3 28 12 0 17 3 11 5 -7 3 -10 13 -7 24 3 12 -4 24 -21 35 -24 16 -24 18
-10 40 11 17 13 29 6 42 -8 13 -6 20 6 29 14 10 14 16 3 40 -9 20 -9 30 -2 32
15 5 14 79 -1 85 -10 3 -10 9 0 27 12 19 11 24 -8 40 -13 11 -17 21 -10 25 14
9 13 62 -2 67 -9 3 -9 12 2 38 11 26 11 35 2 38 -19 6 -14 27 12 51 13 12 29
43 36 69 7 29 14 41 19 34 6 -10 11 -9 21 3 11 13 11 21 2 36 -16 25 -8 39 22
39 18 0 23 5 22 23 -1 12 7 30 18 39 17 14 18 20 8 27 -11 6 -10 9 3 15 24 9
27 8 19 -6 -4 -7 -3 -8 4 -4 7 4 12 14 12 22 0 8 7 14 15 14 8 0 15 5 15 10 0
6 5 10 11 10 8 0 7 -5 -1 -15 -15 -19 -9 -28 14 -19 9 3 16 17 16 30 0 15 6
24 15 24 8 0 15 4 15 8 0 5 21 20 48 33 26 13 54 30 62 39 28 29 77 58 111 68
28 8 175 91 287 162 30 20 28 36 -7 48 -60 21 -67 47 -77 285 l-7 157 -666 0
c-434 0 -661 -4 -651 -10z m1223 -317 c-7 -3 -9 -12 -6 -20 5 -12 2 -15 -10
-10 -21 8 -34 -12 -16 -24 11 -7 10 -9 -3 -9 -11 0 -18 7 -18 18 0 24 38 64
53 55 8 -5 8 -8 0 -10z m6 -65 c-1 -7 -5 -24 -9 -38 -7 -22 -8 -20 -7 13 1 20
5 37 9 37 4 0 8 -6 7 -12z m-72 -60 c-2 -13 -4 -5 -4 17 -1 22 1 32 4 23 2
-10 2 -28 0 -40z m30 20 c-3 -7 -5 -2 -5 12 0 14 2 19 5 13 2 -7 2 -19 0 -25z
m8 -59 c-4 -5 -12 -9 -18 -8 -9 0 -8 2 1 6 6 2 9 10 6 15 -4 7 -2 8 5 4 6 -4
9 -12 6 -17z m-525 -449 c0 -5 -8 -10 -17 -10 -15 0 -16 2 -3 10 19 12 20 12
20 0z m45 -10 c3 -6 -4 -10 -17 -10 -18 0 -20 2 -8 10 19 12 18 12 25 0z m-45
-45 c0 -2 -9 -9 -20 -15 -16 -9 -18 -8 -14 5 5 13 34 22 34 10z m371 -2385 c5
-35 3 -45 -8 -45 -7 0 -13 3 -13 8 0 4 0 16 0 27 0 20 19 29 21 10z m-360 -64
c96 -17 215 -60 180 -64 -12 -2 -53 3 -90 12 -36 8 -99 23 -138 32 -40 9 -73
21 -73 25 0 12 31 11 121 -5z m320 -74 c-14 -26 6 -112 26 -112 13 0 14 -8 10
-42 -4 -27 -3 -36 2 -23 8 19 9 18 12 -5 4 -22 10 -25 51 -28 30 -2 48 -8 52
-18 11 -28 -4 -34 -85 -34 l-79 0 -1 98 c0 53 -3 116 -5 140 -4 34 -2 42 11
42 12 0 13 -4 6 -18z m259 -294 c0 -11 -48 -10 -54 1 -4 5 -3 16 0 25 5 14 8
14 30 -2 13 -9 24 -20 24 -24z m-55 -18 c3 -5 -1 -10 -9 -10 -9 0 -16 5 -16
10 0 6 4 10 9 10 6 0 13 -4 16 -10z"/>
<path d="M4455 12703 c-26 -39 -30 -75 -19 -145 4 -23 12 -38 20 -38 8 0 14
-9 14 -20 0 -11 7 -20 15 -20 13 0 14 4 4 22 -10 18 -8 24 11 40 12 10 28 18
35 18 7 0 16 8 19 18 4 9 14 30 22 45 12 21 14 41 9 73 l-6 44 -49 0 c-46 0
-51 -3 -75 -37z"/>
<path d="M4765 12708 c-11 -52 -74 -179 -111 -225 -59 -72 -43 -71 80 1 50 30
103 60 119 67 15 7 27 20 27 29 0 22 30 48 125 108 l79 51 -156 0 -156 1 -7
-32z m218 15 c-7 -2 -19 -2 -25 0 -7 3 -2 5 12 5 14 0 19 -2 13 -5z m-63 -40
c-11 -17 -11 -17 -6 0 3 10 6 24 7 30 0 9 2 9 5 0 3 -7 0 -20 -6 -30z"/>
<path d="M10106 12610 c3 -74 7 -156 10 -182 l4 -48 -53 -26 c-63 -32 -123
-78 -139 -107 -7 -12 -15 -51 -18 -87 -5 -62 -6 -65 -30 -63 -238 22 -334 18
-478 -18 -110 -27 -198 -68 -241 -113 -26 -27 -36 -48 -45 -98 l-11 -63 -35 0
-35 0 3 -49 c2 -28 11 -59 21 -72 l18 -22 19 26 c42 57 68 83 95 97 44 23 44
19 0 -36 -23 -28 -46 -69 -51 -90 -13 -46 -15 -384 -5 -689 4 -110 2 -139 -11
-155 -24 -32 -33 -3 -35 110 -2 133 -1 124 -29 175 l-24 45 -7 -70 c-13 -137
-13 -303 0 -323 8 -14 141 26 531 159 80 27 183 61 230 75 47 14 114 37 150
50 36 14 77 30 92 36 34 13 29 24 -17 32 -25 5 -36 13 -40 29 -7 28 11 81 25
72 5 -3 7 0 4 9 -3 8 1 27 10 43 8 17 13 47 11 69 -3 32 -1 36 8 23 23 -31 87
-52 87 -29 0 6 -8 10 -18 10 -19 0 -34 30 -58 118 -8 29 -14 54 -14 56 0 2 14
17 30 34 29 31 39 65 22 76 -13 8 -51 -39 -71 -86 -16 -38 -18 -40 -34 -24
-11 11 -15 26 -11 40 3 12 0 35 -6 50 -7 21 -7 32 1 42 6 7 8 18 4 24 -4 6 1
18 11 25 11 8 15 15 10 15 -5 0 3 9 18 21 20 15 26 29 26 57 0 26 6 41 20 50
19 11 20 10 20 -23 0 -24 5 -35 15 -35 12 0 15 13 15 60 0 33 -3 60 -7 60 -5
-1 -26 -9 -48 -20 -22 -11 -48 -19 -57 -20 -27 0 -32 20 -9 37 12 8 20 20 19
26 -1 7 3 22 10 34 11 20 20 23 70 21 116 -3 145 10 166 75 3 9 10 17 15 17
18 0 24 -44 22 -139 -2 -74 0 -92 11 -89 9 3 14 28 16 80 l3 75 54 6 c30 3 69
10 87 16 30 9 162 40 246 56 41 8 43 -11 6 -54 -14 -17 -22 -35 -19 -41 4 -6
-11 -18 -34 -28 -30 -13 -41 -23 -41 -39 0 -14 6 -23 16 -23 11 0 14 -6 9 -20
-3 -11 -2 -20 4 -20 5 0 13 -10 17 -22 9 -32 34 -58 54 -58 23 0 130 -105 130
-127 0 -10 -6 -30 -14 -45 -12 -23 -12 -29 1 -39 22 -19 8 -97 -23 -128 -29
-29 -30 -38 -4 -46 11 -3 20 -9 20 -13 0 -4 4 -13 9 -20 7 -11 19 -10 67 3 59
17 152 48 189 64 11 5 39 14 63 20 26 7 42 18 42 27 0 11 -6 13 -19 9 -11 -3
-22 -1 -26 5 -9 14 -7 16 28 24 23 5 29 3 37 -19 14 -38 40 -22 40 26 0 36 -2
39 -27 39 -16 0 -44 3 -64 6 l-35 6 11 74 c7 41 20 82 29 92 9 10 16 28 16 40
0 27 17 37 35 22 8 -6 19 -9 25 -5 15 9 13 105 -2 105 -9 0 -9 3 0 12 7 7 12
34 12 60 0 42 -3 48 -21 48 -29 0 -120 -46 -141 -72 -10 -11 -18 -32 -18 -47
0 -21 -10 -31 -55 -55 -30 -16 -55 -33 -55 -38 0 -5 -4 -7 -10 -3 -5 3 -7 12
-4 20 3 8 2 20 -3 27 -4 7 -15 60 -24 118 -13 84 -14 108 -4 120 44 53 58 137
30 178 -9 12 -30 25 -48 30 -28 7 -34 15 -44 55 -15 60 -18 64 -61 86 -54 27
-132 41 -231 41 -92 0 -279 -28 -366 -54 -46 -14 -59 -14 -61 2 0 4 -4 70 -8
146 -11 186 -27 231 -20 56z m438 -296 c25 -10 19 -22 -14 -29 -32 -7 -65 9
-54 26 6 10 45 12 68 3z m-284 -184 c0 -5 -2 -10 -4 -10 -3 0 -8 5 -11 10 -3
6 -1 10 4 10 6 0 11 -4 11 -10z m-260 -73 c-16 -24 -34 -57 -41 -73 l-11 -29
-11 23 c-15 33 1 72 42 99 49 33 54 29 21 -20z m883 -171 c27 -13 20 -36 -13
-43 -22 -4 -38 -17 -55 -47 -14 -22 -25 -35 -25 -28 0 6 -7 12 -15 12 -19 0
-19 5 -1 38 8 15 19 39 25 54 8 22 16 27 38 25 16 -2 36 -7 46 -11z m-933 -39
c0 -20 -1 -20 -16 -5 -9 9 -13 21 -9 27 10 16 25 3 25 -22z m1180 -1 c0 -17
-14 -29 -23 -20 -8 8 3 34 14 34 5 0 9 -6 9 -14z m-54 -35 c-3 -5 -15 -11 -26
-14 -17 -4 -19 -3 -9 9 12 15 44 20 35 5z m-236 -39 c0 -13 -12 -22 -22 -16
-10 6 -1 24 13 24 5 0 9 -4 9 -8z m-1154 -98 c25 -7 36 -45 27 -97 -5 -32 -8
-35 -44 -39 -27 -2 -39 0 -39 9 0 7 -7 13 -15 13 -9 0 -20 12 -25 26 -6 14
-17 32 -25 40 -23 24 -18 30 33 41 62 14 64 14 88 7z m-162 -40 c3 -8 2 -12
-4 -9 -6 3 -10 10 -10 16 0 14 7 11 14 -7z m476 -184 c0 -5 -4 -10 -10 -10 -5
0 -10 5 -10 10 0 6 5 10 10 10 6 0 10 -4 10 -10z m4 -148 c-2 -13 -10 -22 -17
-19 -12 4 -13 18 -1 77 l8 35 8 -35 c4 -19 5 -45 2 -58z m-328 41 l-6 -28 15
25 15 25 -2 -35 c-3 -35 -15 -53 -30 -44 -12 8 -10 84 3 84 7 0 9 -10 5 -27z
m-398 -43 c4 -22 -6 -70 -30 -153 -12 -40 -39 -62 -65 -53 -10 4 -13 14 -10
28 4 14 0 26 -11 34 -21 16 -8 43 30 62 18 8 28 23 33 50 11 62 46 83 53 32z
m284 -2 c-1 -16 3 -28 13 -32 12 -4 14 -10 6 -25 -6 -11 -8 -33 -5 -49 5 -24
0 -35 -24 -60 -34 -35 -87 -53 -119 -41 -38 14 -73 78 -73 134 0 28 5 56 12
63 20 20 47 14 54 -13 8 -31 39 -33 55 -3 30 56 86 74 81 26z m197 -58 c5 -16
15 -30 20 -30 20 0 11 -37 -16 -64 -32 -32 -45 -30 -58 12 -7 24 -13 31 -27
26 -31 -10 -17 27 15 39 9 3 17 16 17 27 0 33 36 25 49 -10z m-14 -210 c11
-34 -12 -50 -72 -50 -64 0 -81 21 -42 51 35 27 105 26 114 -1z"/>
<path d="M4536 12513 c-6 -14 -5 -15 5 -6 7 7 10 15 7 18 -3 3 -9 -2 -12 -12z"/>
<path d="M4554 12469 c-3 -6 -2 -15 3 -20 5 -5 9 -1 9 11 0 23 -2 24 -12 9z"/>
<path d="M4507 12430 c-9 -11 -12 -20 -7 -20 6 0 10 -4 10 -9 0 -4 -12 -6 -27
-4 -27 3 -27 3 5 -14 32 -16 33 -16 54 5 18 18 19 22 6 22 -11 0 -15 6 -11 20
3 11 1 20 -4 20 -5 0 -16 -9 -26 -20z"/>
<path d="M4480 12359 c0 -5 5 -7 10 -4 6 3 10 8 10 11 0 2 -4 4 -10 4 -5 0
-10 -5 -10 -11z"/>
<path d="M10500 11946 c0 -14 5 -28 10 -31 6 -3 10 -15 10 -26 0 -11 5 -17 10
-14 21 13 4 95 -20 95 -6 0 -10 -11 -10 -24z"/>
<path d="M10365 11950 c-5 -8 -1 -35 12 -82 9 -35 23 -17 23 31 0 34 -5 51
-15 54 -8 4 -17 2 -20 -3z"/>
<path d="M10067 11923 c-12 -11 -8 -23 8 -23 8 0 15 7 15 15 0 16 -12 20 -23
8z"/>
<path d="M10195 11910 c-3 -6 1 -17 9 -26 9 -8 16 -26 16 -40 0 -13 5 -24 10
-24 11 0 14 59 4 84 -7 18 -30 21 -39 6z"/>
<path d="M10443 11904 c-7 -12 -8 -26 -3 -34 13 -21 22 -7 18 27 -3 27 -4 27
-15 7z"/>
<path d="M10131 11878 c-12 -31 -2 -88 15 -88 10 0 14 14 14 49 0 55 -15 75
-29 39z"/>
<path d="M3078 11753 c7 -3 16 -2 19 1 4 3 -2 6 -13 5 -11 0 -14 -3 -6 -6z"/>
<path d="M7450 11736 c0 -7 -6 -19 -14 -25 -8 -7 -22 -35 -31 -64 -15 -44 -18
-92 -19 -302 -1 -260 7 -344 45 -480 11 -38 29 -104 40 -145 23 -84 25 -88 40
-73 8 8 3 35 -19 95 -74 205 -87 282 -87 523 0 209 11 293 56 422 23 67 23 63
4 63 -8 0 -15 -6 -15 -14z"/>
<path d="M10737 11652 c-16 -18 -16 -18 13 -14 17 2 29 9 27 15 -6 19 -23 18
-40 -1z"/>
<path d="M7020 11548 c-22 -37 -49 -123 -48 -153 0 -11 -3 -69 -7 -130 -7 -97
2 -269 21 -395 2 -19 1 -41 -4 -48 -11 -16 -70 -17 -220 -4 -104 9 -115 12
-147 41 -20 17 -40 31 -46 31 -6 0 -36 -17 -67 -37 -31 -21 -70 -39 -87 -40
-44 -3 -69 -8 -82 -16 -6 -4 -14 -1 -16 5 -3 7 -6 -9 -7 -37 l-1 -50 -20 25
c-27 32 -62 36 -53 6 6 -19 5 -20 -11 -6 -15 13 -19 12 -31 -5 -8 -10 -14 -16
-14 -12 0 4 -10 1 -22 -7 -13 -8 -49 -19 -80 -25 -69 -12 -189 -53 -276 -92
-34 -16 -65 -29 -68 -29 -3 0 -29 -16 -59 -35 -131 -83 -336 -336 -411 -505
-8 -19 -35 -75 -58 -125 -74 -154 -142 -370 -152 -485 -9 -103 -72 -470 -86
-500 -6 -14 -11 -29 -10 -33 2 -4 -4 -27 -12 -50 -9 -28 -11 -46 -4 -57 7 -10
5 -34 -5 -74 -9 -32 -13 -64 -11 -71 3 -7 -1 -28 -9 -48 -11 -24 -12 -38 -5
-45 7 -7 7 -21 2 -39 -4 -15 -8 -32 -9 -38 -21 -186 -26 -306 -16 -353 12 -60
50 -152 61 -152 4 0 6 -29 5 -65 -2 -36 -1 -65 1 -65 2 0 18 16 37 35 19 19
39 35 45 35 6 0 13 9 17 19 7 25 59 43 88 32 12 -5 37 -6 55 -3 21 3 49 -3 74
-14 178 -82 259 -127 304 -168 35 -30 61 -46 79 -46 14 0 24 -4 20 -9 -3 -6 2
-14 12 -20 13 -7 25 -4 45 10 14 11 61 25 102 31 42 7 76 15 76 19 0 4 -28 6
-62 5 -35 -1 -75 3 -89 10 -24 12 -26 17 -20 51 9 54 2 85 -20 90 -10 3 -19
12 -19 19 0 8 -6 13 -12 11 -20 -3 -22 52 -3 93 9 20 15 43 13 51 -2 9 5 14
19 14 11 0 25 3 29 8 4 4 18 7 31 7 32 0 28 11 -16 41 -38 27 -72 83 -78 129
-2 14 -6 32 -10 40 -3 8 -7 19 -7 23 -1 4 -7 12 -15 16 -25 16 -7 151 20 151
5 0 9 8 9 18 0 9 16 41 35 69 19 29 35 55 35 59 0 4 8 17 18 28 44 50 92 204
92 297 0 58 -30 190 -49 213 -5 6 -12 31 -16 56 -9 57 -20 78 -59 112 -30 27
-186 110 -215 114 -17 3 -31 23 -31 44 1 38 73 87 110 75 19 -6 21 -4 16 13
-4 11 -3 23 2 26 5 3 10 17 10 32 0 14 6 30 13 35 11 6 11 13 3 26 -13 21 4
63 40 99 55 56 66 72 54 77 -9 4 -10 8 -2 14 6 4 16 18 23 31 6 12 18 22 26
22 9 0 15 10 15 24 0 17 9 27 33 37 17 8 38 12 45 11 6 -2 12 7 12 19 0 15 5
19 15 15 8 -3 15 -1 15 4 0 6 5 10 11 10 6 0 32 17 58 38 69 57 112 79 172 87
30 4 59 12 66 17 7 5 17 7 23 3 5 -3 15 -3 22 1 6 4 37 8 67 9 59 2 91 11 103
29 5 7 8 3 8 -8 0 -12 5 -16 15 -12 9 3 25 1 35 -4 143 -72 158 -82 204 -145
15 -20 15 -20 16 3 0 21 1 21 18 5 10 -10 14 -19 10 -21 -14 -6 -9 -24 6 -19
18 7 35 -15 74 -95 18 -38 41 -74 52 -80 11 -7 20 -22 20 -34 0 -11 6 -41 14
-67 10 -33 11 -48 3 -56 -9 -9 -8 -17 1 -31 15 -24 15 -33 2 -25 -14 9 0 -56
16 -75 10 -12 54 -233 54 -272 0 -5 4 -8 9 -8 15 0 33 68 26 99 -5 26 -4 29
13 24 11 -3 23 -15 26 -26 9 -35 7 -125 -5 -194 l-11 -64 -19 30 c-11 18 -19
38 -19 45 0 8 -7 16 -15 20 -15 5 -19 -4 -28 -64 -3 -14 -5 -1 -6 29 -1 46 -3
52 -16 41 -12 -10 -18 -10 -30 0 -20 17 -29 7 -19 -22 4 -13 6 -24 5 -26 -1
-2 9 -13 23 -26 14 -12 26 -30 26 -41 0 -17 2 -17 10 -5 8 12 10 11 10 -7 0
-12 -4 -25 -10 -28 -5 -3 -10 -23 -10 -44 0 -20 -5 -64 -11 -97 -6 -32 -12
-69 -14 -82 -3 -31 -12 -37 -30 -22 -14 11 -14 10 -5 -14 26 -68 17 -69 -97
-10 -85 44 -121 57 -168 60 -33 3 -69 9 -80 14 -11 5 -29 10 -39 12 -19 3 -19
4 -2 21 10 9 29 18 44 18 20 1 22 3 8 6 -15 4 -16 7 -5 14 33 21 -55 7 -104
-16 -44 -22 -55 -24 -75 -14 -19 11 -24 10 -36 -7 -8 -10 -14 -38 -14 -62 0
-24 -6 -49 -12 -57 -7 -9 -8 -15 -2 -15 5 0 12 -9 15 -19 3 -13 17 -22 41 -26
20 -4 39 -11 42 -17 3 -5 -5 -7 -18 -4 -77 17 -84 9 -33 -36 49 -42 215 -104
215 -79 0 6 -9 11 -21 11 -11 0 -17 5 -14 10 3 6 2 10 -4 10 -5 0 -28 12 -51
28 -37 23 -40 27 -21 30 12 2 19 8 15 13 -4 7 6 8 28 4 18 -3 40 -7 48 -8 8
-2 20 -5 25 -8 13 -6 100 -2 142 7 25 5 35 13 44 41 l11 35 25 -24 25 -23 -29
-12 -28 -11 25 -5 c14 -3 37 -8 52 -11 29 -7 68 -60 68 -94 0 -12 22 -65 49
-119 27 -54 54 -115 61 -136 18 -58 40 -214 40 -290 0 -64 1 -68 21 -65 16 2
26 16 37 51 28 88 38 57 33 -100 -2 -56 1 -83 8 -83 6 0 11 9 11 20 0 11 5 20
10 20 14 0 12 -32 -7 -108 -18 -72 -80 -212 -99 -224 -6 -4 -15 -19 -18 -33
-3 -13 -27 -49 -51 -80 -25 -30 -41 -55 -36 -55 5 0 12 7 15 16 3 9 11 14 18
12 6 -2 43 28 81 66 71 71 135 182 123 212 -3 8 0 13 6 11 22 -4 72 214 88
393 6 63 15 131 20 151 14 50 22 235 25 544 1 143 3 265 5 270 2 6 7 -30 11
-80 4 -49 16 -127 27 -172 11 -45 18 -84 16 -86 -3 -2 2 -35 10 -74 26 -123
37 -241 38 -418 0 -143 3 -173 14 -168 8 3 14 15 14 27 1 35 28 126 29 95 2
-51 13 -91 22 -77 7 10 9 10 9 -3 0 -8 9 -25 19 -36 11 -11 25 -40 31 -64 7
-24 17 -47 23 -51 8 -5 11 -54 10 -152 -1 -130 1 -144 15 -139 10 3 1 -6 -18
-21 -30 -24 -42 -27 -85 -22 -81 7 -115 17 -115 33 0 8 -4 11 -10 8 -5 -3 -10
1 -10 9 0 9 -4 16 -8 16 -11 0 -36 -44 -80 -147 -29 -67 -39 -103 -38 -135 3
-43 -20 -146 -44 -203 -7 -16 -12 -36 -11 -42 1 -7 -3 -13 -8 -13 -5 0 -13
-10 -16 -22 -8 -26 -51 -93 -79 -123 -35 -38 -67 -97 -61 -113 3 -8 0 -19 -7
-23 -10 -7 -10 -13 -2 -27 9 -14 9 -24 -2 -43 -7 -13 -13 -35 -14 -48 0 -16
-5 -21 -14 -18 -9 4 -16 -4 -19 -23 -3 -15 -14 -35 -23 -45 -14 -14 -15 -21
-6 -35 8 -13 8 -20 0 -22 -5 -2 -12 -16 -13 -30 -2 -15 -16 -46 -32 -70 -16
-24 -32 -50 -35 -59 -4 -9 -23 -24 -45 -34 -21 -10 -33 -20 -26 -22 8 -3 2
-14 -15 -30 -15 -13 -27 -30 -27 -36 0 -24 -27 -58 -41 -53 -9 3 -14 -1 -14
-12 0 -10 -27 -41 -59 -70 -33 -30 -82 -76 -110 -103 -28 -27 -54 -49 -59 -49
-14 0 -63 -56 -55 -63 3 -4 1 -7 -5 -7 -15 0 -16 -35 -2 -60 17 -32 -27 -82
-94 -105 l-57 -20 5 -60 c13 -141 18 -846 7 -1010 -6 -93 -18 -291 -26 -440
-8 -148 -19 -306 -25 -350 -5 -44 -14 -156 -20 -250 -12 -190 -40 -417 -70
-575 -26 -134 -26 -133 10 -174 38 -43 113 -59 205 -44 90 14 255 64 353 107
48 21 137 55 197 76 61 21 138 50 173 66 35 16 70 29 78 29 8 0 12 5 9 10 -3
6 2 10 12 10 10 0 32 9 48 20 17 11 37 20 45 20 8 0 25 12 38 28 13 15 21 21
17 15 -12 -24 15 -13 52 21 21 18 49 37 63 40 41 12 90 40 90 51 0 12 80 43
120 46 25 3 87 -9 104 -19 13 -7 89 -6 109 3 9 4 17 13 17 21 0 7 10 15 23 18
39 6 87 5 87 -2 0 -11 93 -1 108 11 10 8 14 5 19 -11 7 -28 23 -29 23 -2 0 11
4 20 8 20 21 0 32 -29 32 -82 0 -62 16 -79 27 -28 4 25 8 28 20 18 8 -6 13 -7
12 -2 -1 5 -1 25 0 44 1 26 4 31 11 20 7 -11 14 -3 30 35 12 27 26 52 31 56 6
3 13 34 16 68 3 34 10 64 14 67 15 9 9 74 -16 194 -13 63 -36 185 -50 270 -15
85 -35 193 -45 240 -11 47 -24 116 -30 153 -6 38 -17 96 -25 130 -26 114 -21
186 13 188 9 0 26 2 37 4 11 2 117 11 235 20 207 15 552 54 661 75 93 18 91
19 88 -58 -2 -65 -2 -67 22 -66 261 13 368 14 373 6 11 -18 -14 -25 -103 -29
-47 -2 -96 -9 -108 -15 -12 -6 -34 -7 -50 -3 -15 4 -54 9 -85 12 l-57 5 -6
-44 c-3 -23 -7 -61 -8 -83 l-2 -40 127 -5 c118 -5 160 -13 127 -25 -8 -2 -70
-6 -139 -7 l-125 -3 -7 -60 c-3 -33 -11 -87 -17 -120 -6 -33 -11 -68 -11 -77
0 -25 35 -23 77 3 31 19 36 20 50 7 11 -12 24 -13 61 -6 49 9 88 36 65 45 -7
3 -13 12 -13 20 0 12 6 13 23 8 12 -5 97 -9 189 -11 l167 -3 32 26 c25 22 43
27 97 29 139 6 260 14 347 23 105 11 236 41 229 52 -2 4 1 11 7 15 8 4 9 3 5
-4 -10 -16 17 -15 32 0 8 8 15 9 22 2 6 -6 44 -7 97 -3 163 13 368 -9 341 -36
-3 -4 -39 -11 -80 -17 -40 -5 -104 -16 -143 -24 -38 -8 -153 -25 -255 -39
-102 -14 -201 -30 -220 -34 -19 -5 -69 -14 -110 -21 -41 -7 -88 -16 -104 -21
-16 -5 -39 -9 -51 -9 -13 0 -28 -7 -35 -15 -7 -9 -17 -12 -22 -7 -4 4 -61 0
-126 -10 -64 -10 -166 -25 -227 -34 -60 -9 -117 -23 -126 -31 -10 -8 -19 -10
-20 -5 -2 5 -34 5 -74 1 -69 -7 -253 -43 -259 -50 -3 -4 -28 -138 -47 -254 -5
-27 -16 -120 -24 -205 -34 -335 -131 -729 -241 -978 -13 -30 -24 -58 -24 -62
0 -4 73 13 163 37 89 24 196 53 237 64 41 11 140 38 219 60 79 22 146 37 149
34 3 -3 10 -1 16 4 6 4 88 29 181 55 94 26 190 53 215 60 25 8 83 24 130 36
47 12 105 28 130 35 25 7 119 34 210 58 367 101 471 129 595 163 72 19 148 41
170 47 l40 12 3 232 2 233 -48 0 c-26 0 -83 4 -127 10 -44 5 -228 23 -410 40
-181 17 -385 35 -452 42 l-123 11 0 53 0 53 48 3 c26 2 74 -2 107 -9 33 -7
114 -17 180 -23 66 -6 163 -15 215 -20 52 -6 156 -15 230 -20 74 -5 187 -16
250 -24 63 -7 118 -12 123 -9 4 2 7 270 7 594 0 463 -3 590 -12 593 -7 3 -323
9 -703 15 -379 6 -742 14 -806 17 l-116 6 -17 38 c-9 20 -16 48 -16 61 -1 13
-7 35 -15 49 -8 14 -14 33 -15 43 0 11 -6 33 -14 50 -8 18 -17 43 -19 57 -5
22 -19 73 -47 175 -4 17 -25 84 -45 150 -99 317 -121 388 -170 550 -20 66 -42
140 -50 165 -17 58 -78 229 -106 300 -11 30 -23 65 -26 78 -3 12 -9 25 -14 28
-5 3 -9 12 -9 20 0 8 -15 45 -33 82 -19 37 -37 80 -41 95 -3 15 -11 27 -17 27
-6 0 -8 4 -5 9 3 5 -1 14 -9 21 -8 7 -15 18 -15 25 0 23 -129 297 -142 303 -5
2 -8 8 -8 14 0 5 -20 41 -45 79 -25 38 -52 85 -60 105 -8 19 -28 42 -46 52
-32 17 -111 70 -184 122 -22 15 -42 27 -44 25 -2 -2 -12 5 -24 16 -11 10 -27
19 -34 19 -7 0 -15 10 -18 23 -4 15 -19 28 -39 35 -35 13 -48 34 -62 95 -5 21
-13 37 -19 35 -5 -2 -8 -7 -6 -13 10 -22 5 -78 -6 -82 -7 -3 -18 8 -24 24 -6
15 -16 36 -21 47 -6 11 -6 16 0 12 5 -3 12 3 15 15 4 16 3 18 -8 9 -14 -12
-25 6 -25 42 0 17 2 18 15 8 9 -7 18 -11 20 -8 6 6 -18 58 -27 58 -5 0 -8 11
-8 25 0 14 5 25 10 25 6 0 10 5 10 11 0 6 -7 9 -15 5 -10 -3 -15 1 -15 14 0
10 -4 22 -10 25 -5 3 -10 16 -10 29 0 17 -6 22 -24 21 -33 0 -45 -14 -25 -28
9 -7 19 -26 22 -42 3 -17 13 -59 23 -94 13 -48 14 -66 6 -69 -17 -5 -15 -30 4
-40 14 -8 13 -10 -5 -15 -11 -3 -21 -2 -21 2 0 4 -16 28 -36 54 -20 25 -33 50
-30 55 3 6 -1 12 -9 16 -8 3 -15 12 -15 21 0 8 -9 15 -20 15 -13 0 -20 7 -20
20 0 26 -17 54 -60 99 -40 41 -47 76 -15 76 14 0 21 -8 23 -25 2 -14 9 -32 16
-40 7 -8 16 -23 19 -32 4 -10 13 -18 21 -18 9 0 13 6 10 14 -3 8 0 17 6 21 9
6 9 10 -1 17 -9 6 -10 11 -4 14 6 2 9 28 7 59 -1 33 2 55 8 55 5 0 10 5 10 11
0 6 -6 9 -13 6 -7 -3 -19 4 -26 15 -7 11 -8 17 -2 13 6 -3 11 -1 11 5 0 7 7
10 15 6 8 -3 15 -2 15 3 0 5 -7 14 -15 21 -17 14 -21 45 -5 35 14 -8 13 8 -1
22 -7 7 -9 19 -5 28 7 18 20 9 45 -30 12 -19 12 -18 7 5 -3 14 -6 31 -6 38 0
6 -7 12 -15 12 -19 0 -32 69 -15 80 8 5 11 19 7 39 -4 18 -2 33 5 37 7 5 8 3
4 -5 -9 -13 23 -43 36 -35 11 7 10 44 -1 44 -5 0 -15 20 -22 45 -7 25 -17 45
-21 45 -13 0 -19 37 -9 62 5 14 17 32 26 41 12 13 14 21 5 36 -13 25 -13 91 0
91 13 0 2 47 -16 75 -17 24 -18 39 -3 29 8 -5 10 0 6 17 -14 55 -44 226 -45
249 0 14 -5 48 -11 75 -6 28 -9 69 -5 92 5 33 1 52 -15 83 -12 22 -21 48 -21
57 0 9 -11 30 -23 47 -13 17 -29 48 -36 68 -7 20 -29 63 -50 96 -34 52 -48 63
-125 102 -47 25 -86 48 -86 52 0 4 -20 17 -45 29 -36 17 -44 25 -40 40 11 32
-3 58 -27 51 l-21 -5 21 21 c27 27 32 27 32 3 0 -11 3 -22 8 -24 13 -9 62 41
56 56 -3 9 0 15 8 14 29 -1 51 3 45 9 -3 4 0 16 8 28 17 24 19 36 5 36 -5 0
-10 -6 -10 -14 0 -7 -7 -19 -15 -26 -17 -14 -19 -7 -5 20 7 13 6 26 -4 45 -10
20 -15 22 -19 11 -4 -10 -13 -13 -24 -9 -10 4 -12 8 -5 11 30 10 7 21 -35 18
-55 -4 -76 -11 -116 -39 -18 -12 -38 -17 -54 -14 -15 3 -34 1 -42 -5 -11 -6
-26 -6 -45 1 -31 12 -31 21 -2 96 25 67 21 109 -15 139 -17 14 -43 29 -57 32
-15 3 -43 11 -62 17 -19 7 -40 12 -45 12 -6 0 -21 9 -33 21 -61 57 -77 380
-29 594 14 63 30 130 35 148 7 19 7 32 1 32 -5 0 -18 -15 -29 -32z m-440 -688
c0 -5 -4 -10 -10 -10 -5 0 -10 5 -10 10 0 6 5 10 10 10 6 0 10 -4 10 -10z
m638 -147 c15 -20 15 -43 2 -78 -7 -17 -7 -24 0 -20 6 3 10 2 10 -4 0 -17 -18
-21 -24 -5 -3 8 -10 13 -15 10 -4 -3 -11 15 -14 40 -2 25 -12 53 -21 62 -9 10
-16 12 -16 5 0 -7 5 -15 10 -18 16 -10 12 -61 -6 -76 -13 -10 -17 -10 -25 2
-5 8 -7 23 -4 34 2 11 5 33 5 49 0 28 1 28 43 22 23 -4 48 -14 55 -23z m-29
-182 c-12 -17 -26 -28 -30 -26 -4 3 5 18 19 35 33 37 41 31 11 -9z m21 -41 c0
-5 -4 -10 -10 -10 -5 0 -10 5 -10 10 0 6 5 10 10 10 6 0 10 -4 10 -10z m73
-204 c-4 -6 1 -7 12 -2 10 4 21 2 25 -4 4 -6 16 -12 28 -13 11 0 19 -4 16 -8
-2 -4 13 -18 33 -30 40 -24 53 -37 53 -54 0 -6 -3 -6 -8 1 -7 10 -100 44 -121
44 -10 0 -48 29 -87 68 -8 7 -14 19 -14 26 0 11 7 10 34 -2 19 -9 32 -20 29
-26z m167 -28 c0 -5 6 -8 14 -8 15 0 91 -68 83 -76 -10 -11 -57 9 -62 26 -4
11 -12 17 -21 13 -7 -3 -14 0 -14 7 0 6 -4 9 -9 6 -4 -3 -15 2 -23 12 -12 15
-15 26 -9 47 2 8 41 -19 41 -27z m150 -82 c0 -4 -9 -1 -19 6 -11 7 -17 16 -15
20 5 8 34 -15 34 -26z m-1640 -51 c-39 -29 -41 -30 -34 -11 3 7 15 18 27 24
39 19 42 13 7 -13z m1450 -24 c8 -12 20 -21 27 -21 7 0 17 -9 23 -19 14 -27
13 -33 -4 -24 -25 14 -96 83 -96 94 0 14 32 -5 50 -30z m81 -279 c11 -29 5
-28 -16 4 -11 17 -12 25 -4 22 6 -2 16 -14 20 -26z m169 -127 c0 -8 4 -15 8
-15 4 0 18 -20 30 -45 16 -34 19 -51 12 -69 -5 -13 -6 -27 -3 -30 4 -3 1 -6
-5 -6 -7 0 -12 3 -12 8 0 4 -3 18 -7 31 -4 17 -3 22 5 17 7 -4 12 -1 12 8 0
22 -18 29 -28 10 -6 -10 -12 -12 -16 -6 -3 5 1 12 9 16 16 6 21 46 5 46 -5 0
-6 -7 -3 -17 4 -11 3 -14 -5 -9 -7 4 -12 2 -12 -3 0 -20 -16 -11 -34 20 -17
29 -17 31 -1 43 16 12 16 13 1 19 -9 4 -16 11 -16 17 0 6 12 4 30 -5 17 -9 30
-22 30 -30z m-130 -126 c0 -5 -4 -9 -10 -9 -5 0 -10 7 -10 16 0 8 5 12 10 9 6
-3 10 -10 10 -16z m43 -79 c5 -19 15 -39 23 -45 8 -5 17 -28 20 -50 3 -22 15
-65 25 -96 10 -30 19 -69 19 -86 0 -19 6 -33 16 -37 8 -3 12 -11 9 -16 -4 -6
-4 -29 0 -50 6 -34 9 -38 21 -26 8 8 14 21 14 28 0 10 -3 9 -10 -2 -9 -13 -10
-13 -9 0 0 8 4 24 9 35 7 18 8 18 15 -8 4 -16 3 -38 -2 -50 -13 -31 -6 -158
11 -185 4 -7 5 -21 1 -31 -3 -11 -1 -22 5 -26 5 -3 10 -11 10 -16 0 -6 -5 -7
-11 -3 -8 5 -8 1 0 -13 11 -21 5 -37 -10 -27 -5 3 -9 23 -9 44 0 21 -5 40 -11
42 -6 2 -14 28 -17 58 -4 30 -11 55 -17 55 -14 0 -19 -84 -6 -99 10 -12 13
-96 4 -96 -3 0 -11 7 -19 15 -9 8 -11 15 -6 15 12 0 3 101 -11 118 -5 7 -10
30 -10 52 0 22 -4 43 -8 46 -10 6 -12 -6 -9 -48 2 -33 -15 -37 -30 -8 -20 38
-33 23 -27 -32 5 -42 4 -48 -4 -28 -6 14 -9 53 -7 87 2 33 0 59 -4 56 -5 -2
-8 8 -8 24 0 22 -2 25 -10 13 -9 -13 -10 -13 -10 0 0 9 12 24 28 34 15 9 19
15 10 12 -14 -4 -18 0 -18 17 0 12 -4 28 -9 36 -5 7 -6 23 -3 34 5 20 6 20 13
1 15 -38 10 15 -7 73 l-16 56 27 23 c23 19 26 29 21 56 -15 83 -15 89 -4 86 7
-3 16 -20 21 -38z m157 20 c0 -5 -2 -10 -4 -10 -3 0 -8 5 -11 10 -3 6 -1 10 4
10 6 0 11 -4 11 -10z m40 -54 c-14 -14 -24 0 -16 21 6 15 8 15 16 3 6 -9 5
-19 0 -24z m-243 -48 c-3 -8 -6 -5 -6 6 -1 11 2 17 5 13 3 -3 4 -12 1 -19z
m-281 -142 c3 -63 9 -128 14 -143 5 -18 6 -7 3 35 -4 43 -2 62 6 62 11 0 15
-45 12 -150 -6 -265 -6 -387 3 -398 7 -9 6 -20 -2 -32 -6 -10 -8 -34 -5 -54 7
-46 -17 -203 -28 -184 -5 7 -9 9 -10 3 -1 -5 -5 4 -9 20 l-7 30 -11 -26 c-7
-19 -7 -55 1 -128 14 -128 -6 -301 -35 -301 -7 0 -8 19 -4 53 3 28 8 225 11
437 7 509 11 665 18 677 3 5 9 36 12 69 10 106 17 155 22 151 2 -3 6 -57 9
-121z m-56 75 c0 -19 -17 -38 -25 -29 -7 7 7 48 16 48 5 0 9 -9 9 -19z m323
-48 c4 -19 2 -33 -3 -33 -6 0 -10 8 -10 19 0 10 -2 34 -5 52 -7 43 9 10 18
-38z m-34 -7 c1 -42 -5 -29 -12 24 -4 30 -3 38 3 25 5 -11 9 -33 9 -49z m-119
-56 c0 -60 -3 -110 -8 -110 -4 0 -7 46 -6 103 1 111 2 117 9 117 3 0 5 -49 5
-110z m-153 63 c-3 -10 -5 -4 -5 12 0 17 2 24 5 18 2 -7 2 -21 0 -30z m505
-100 c5 -7 5 -13 0 -17 -10 -6 -23 27 -21 54 1 8 3 6 6 -5 3 -11 9 -25 15 -32z
m-254 -16 c6 -21 6 -35 1 -32 -5 4 -9 16 -9 28 0 18 -2 19 -10 7 -8 -12 -10
-11 -10 6 0 18 10 38 16 32 1 -2 7 -20 12 -41z m-287 -8 c-6 -24 -9 -28 -10
-12 -1 24 9 56 16 50 2 -3 0 -20 -6 -38z m-1671 1 c-8 -5 -10 -10 -4 -10 5 0
19 -7 30 -16 18 -15 18 -15 -11 -9 -16 3 -48 11 -70 18 l-40 11 45 7 c25 3 50
7 55 7 6 1 3 -3 -5 -8z m2010 -26 c0 -8 -4 -12 -10 -9 -5 3 -10 10 -10 16 0 5
5 9 10 9 6 0 10 -7 10 -16z m-1962 -56 c20 -12 31 -26 28 -34 -3 -8 -1 -14 4
-14 6 0 10 6 10 13 0 8 3 7 10 -3 6 -9 5 -17 -2 -21 -7 -4 -7 -9 1 -13 6 -4
11 -11 11 -16 0 -5 -21 0 -47 11 -25 11 -67 24 -92 29 -25 6 -56 12 -68 15
-33 8 -28 32 8 40 24 6 28 9 18 17 -28 19 86 -4 119 -24z m1496 -81 c17 -195
14 -559 -5 -540 -4 4 -9 17 -11 28 -1 11 -15 44 -31 74 -25 48 -26 57 -15 87
7 19 18 34 25 34 9 0 13 17 13 58 0 32 5 63 11 69 8 8 8 13 0 17 -6 4 -11 2
-11 -3 0 -6 -5 -11 -12 -11 -6 0 -2 10 10 23 12 13 22 33 22 45 0 24 -15 30
-24 10 -3 -7 -4 33 -3 88 1 121 21 134 31 21z m473 51 c-3 -8 -6 -5 -6 6 -1
11 2 17 5 13 3 -3 4 -12 1 -19z m-348 -69 c-7 -84 -19 -118 -20 -58 0 19 -1
55 -2 81 -3 42 3 54 23 57 3 1 3 -35 -1 -80z m-1602 -51 c-3 -7 -5 -2 -5 12 0
14 2 19 5 13 2 -7 2 -19 0 -25z m2048 -6 c3 -7 2 -18 -1 -23 -7 -12 -34 8 -34
26 0 16 28 15 35 -3z m-2200 -52 c3 -6 -1 -7 -9 -4 -18 7 -21 14 -7 14 6 0 13
-4 16 -10z m1131 -18 c5 -4 8 -28 6 -54 -5 -54 -13 -58 -69 -32 -44 21 -41 50
7 75 39 21 41 22 56 11z m611 -34 c-3 -8 -6 -5 -6 6 -1 11 2 17 5 13 3 -3 4
-12 1 -19z m-440 5 c-4 -3 -2 -12 4 -20 9 -10 7 -13 -10 -13 -14 0 -21 6 -21
20 0 12 7 20 17 20 9 0 13 -3 10 -7z m1049 -79 c-4 -9 -9 -15 -11 -12 -3 3 -3
13 1 22 4 9 9 15 11 12 3 -3 3 -13 -1 -22z m-83 3 c3 -8 1 -20 -4 -28 -6 -10
-9 -7 -9 14 0 29 5 35 13 14z m97 -44 c-1 -24 -2 -26 -11 -10 -5 9 -7 22 -4
27 10 17 15 11 15 -17z m-2334 -7 c17 -18 18 -33 2 -39 -7 -3 9 -5 37 -5 27 0
57 5 66 11 11 7 22 6 35 -1 10 -6 14 -12 8 -12 -7 0 -20 -23 -30 -51 -11 -28
-25 -54 -31 -56 -7 -3 -13 -20 -13 -39 0 -25 -7 -38 -25 -50 -14 -9 -25 -22
-25 -29 0 -7 -7 -15 -15 -19 -8 -3 -15 -12 -15 -21 0 -8 -4 -15 -9 -15 -22 0
-80 -106 -87 -158 -5 -41 -13 -58 -36 -77 -34 -28 -56 -32 -64 -10 -4 8 -15
15 -25 15 -13 0 -19 7 -19 23 0 13 -5 28 -10 33 -18 18 -50 117 -50 154 0 19
-4 42 -9 50 -6 8 -7 19 -3 25 18 27 29 100 19 122 -21 46 72 122 150 123 12 0
25 4 28 10 6 10 58 28 88 29 10 1 25 -5 33 -13z m2294 -16 c0 -5 -2 -10 -4
-10 -3 0 -8 5 -11 10 -3 6 -1 10 4 10 6 0 11 -4 11 -10z m74 -42 c12 -46 -3
-54 -22 -13 -15 33 -15 35 2 35 7 0 16 -10 20 -22z m-73 -31 c-13 -13 -15 1
-4 30 7 17 8 17 11 -1 2 -10 -1 -23 -7 -29z m109 -58 c0 -6 -4 -7 -10 -4 -5 3
-10 11 -10 16 0 6 5 7 10 4 6 -3 10 -11 10 -16z m-18 -48 c2 6 4 -4 5 -24 1
-25 -3 -34 -12 -31 -13 5 -25 36 -25 64 1 12 3 11 14 -3 9 -12 15 -14 18 -6z
m-100 -35 c2 -19 0 -32 -4 -30 -8 5 -12 64 -4 64 2 0 6 -15 8 -34z m20 -110
c4 -6 8 -15 8 -21 0 -5 -4 -4 -9 4 -6 9 -11 10 -15 2 -10 -16 2 -31 19 -24 12
4 15 -4 15 -37 0 -35 -2 -40 -14 -31 -20 17 -31 -65 -16 -120 6 -23 9 -52 6
-64 -4 -15 -1 -25 8 -28 19 -8 26 1 26 35 0 15 4 28 9 28 6 0 7 17 5 38 -4 28
-3 33 5 22 9 -13 11 -13 11 2 0 21 26 48 46 48 12 0 14 -9 9 -42 -4 -24 -10
-45 -14 -48 -13 -9 -50 -121 -44 -136 2 -7 -4 -26 -15 -41 -11 -15 -22 -37
-24 -48 -3 -12 -8 1 -12 30 -4 28 -14 84 -21 125 -8 41 -16 129 -18 196 -2
104 -1 121 13 121 8 0 18 -5 22 -11z m121 -35 c20 -45 23 -95 5 -89 -7 3 -16
27 -20 54 -5 27 -12 57 -18 66 -7 13 -6 16 3 12 8 -3 21 -22 30 -43z m-610 14
c-7 -21 -13 -19 -13 6 0 11 4 18 10 14 5 -3 7 -12 3 -20z m320 -47 c11 -9 19
-34 23 -73 l6 -60 -26 38 c-15 20 -30 37 -35 37 -4 0 -13 -15 -19 -32 l-10
-33 -1 38 c-1 20 3 37 7 37 5 0 7 14 4 30 -3 24 -1 30 15 30 11 0 27 -6 36
-12z m253 -75 c-10 -10 -19 5 -10 18 6 11 8 11 12 0 2 -7 1 -15 -2 -18z m87
-10 c-3 -7 1 -21 8 -31 13 -15 12 -16 -3 -3 -16 12 -18 11 -18 -12 0 -14 4
-29 10 -32 6 -4 5 -11 -3 -19 -10 -11 -14 -2 -23 48 -9 51 -8 63 5 73 17 15
33 -1 24 -24z m-146 -5 c-3 -7 -5 -2 -5 12 0 14 2 19 5 13 2 -7 2 -19 0 -25z
m219 -5 c4 -10 6 -21 6 -25 -1 -5 2 -8 6 -8 11 0 35 -51 28 -57 -3 -3 1 -12 9
-20 23 -22 18 -33 -15 -33 -29 0 -38 15 -31 54 1 4 -2 13 -7 20 -14 17 -24 86
-14 86 6 0 13 -8 18 -17z m-50 -100 c-11 -11 -17 4 -9 23 7 18 8 18 11 1 2
-10 1 -21 -2 -24z m-2987 -75 c0 -47 -2 -57 -9 -41 -5 12 -7 39 -5 60 5 46 4
43 10 43 3 0 5 -28 4 -62z m2961 -23 c0 -41 4 -56 18 -64 11 -7 12 -11 4 -11
-8 0 -13 -10 -12 -22 1 -13 2 -38 1 -57 -2 -56 -12 -28 -12 33 0 31 -4 56 -9
56 -4 0 -7 27 -7 60 1 33 5 60 9 60 4 0 8 -25 8 -55z m-179 -148 c-8 -8 -11
-7 -11 4 0 9 3 19 7 23 4 4 9 2 11 -4 3 -7 -1 -17 -7 -23z m146 -59 c-3 -8 -6
-5 -6 6 -1 11 2 17 5 13 3 -3 4 -12 1 -19z m45 -83 c-4 -61 -8 -82 -13 -65
-12 43 -10 148 4 153 6 2 12 4 13 3 0 0 -2 -41 -4 -91z m-2 -117 c0 -16 -3
-19 -11 -11 -6 6 -8 16 -5 22 11 17 16 13 16 -11z m0 -58 c0 -5 -5 -10 -11
-10 -5 0 -7 5 -4 10 3 6 8 10 11 10 2 0 4 -4 4 -10z m-13 -67 c-3 -10 -5 -2
-5 17 0 19 2 27 5 18 2 -10 2 -26 0 -35z m113 -63 c0 -5 -5 -10 -11 -10 -5 0
-7 5 -4 10 3 6 8 10 11 10 2 0 4 -4 4 -10z m-63 -42 c-3 -8 -6 -5 -6 6 -1 11
2 17 5 13 3 -3 4 -12 1 -19z m-32 -165 c-2 -54 -4 -108 -4 -120 -1 -13 -4 -23
-8 -23 -5 0 -5 51 -1 112 8 134 7 128 12 128 2 0 2 -44 1 -97z m58 39 c4 -20
3 -31 -3 -27 -8 5 -5 -230 5 -277 2 -11 -3 -18 -11 -18 -12 0 -13 14 -8 78 4
50 3 86 -4 99 -6 11 -8 23 -5 27 3 3 6 45 5 93 -1 85 8 96 21 25z m-26 -194
c-3 -8 -6 -5 -6 6 -1 11 2 17 5 13 3 -3 4 -12 1 -19z m553 12 c0 -5 -5 -10
-11 -10 -5 0 -7 5 -4 10 3 6 8 10 11 10 2 0 4 -4 4 -10z m-783 -42 c-3 -7 -5
-2 -5 12 0 14 2 19 5 13 2 -7 2 -19 0 -25z m210 -10 c-3 -8 -6 -5 -6 6 -1 11
2 17 5 13 3 -3 4 -12 1 -19z m-227 -166 c-10 -14 -11 -13 -6 8 3 14 7 52 8 85
l2 60 3 -68 c2 -38 -1 -75 -7 -85z m222 96 c-9 -9 -12 -7 -12 12 0 19 3 21 12
12 9 -9 9 -15 0 -24z m15 -50 c-3 -8 -6 -5 -6 6 -1 11 2 17 5 13 3 -3 4 -12 1
-19z m33 -17 c-7 -15 -8 -27 0 -40 14 -27 13 -64 -2 -59 -15 5 -23 108 -8 108
5 0 10 8 11 18 0 9 3 12 5 5 3 -7 0 -21 -6 -32z m-44 -41 c3 -8 7 -53 9 -100
4 -62 2 -80 -6 -67 -5 9 -8 20 -6 25 3 4 -1 44 -8 89 -7 45 -10 93 -7 105 6
21 7 20 10 -7 2 -16 5 -37 8 -45z m-229 -82 c-2 -13 -4 -5 -4 17 -1 22 1 32 4
23 2 -10 2 -28 0 -40z m282 -85 c0 -29 -2 -33 -8 -18 -7 18 -4 55 5 55 2 0 4
-17 3 -37z m-29 -81 c-7 -3 -7 -8 -1 -15 5 -7 6 -30 2 -52 l-7 -40 -6 44 c-4
24 -4 59 -1 79 6 34 7 34 15 12 6 -17 5 -26 -2 -28z m40 -10 c0 -13 -4 -20
-10 -17 -5 3 -10 21 -10 38 0 24 3 28 10 17 5 -8 10 -25 10 -38z m-293 6 c-3
-8 -6 -5 -6 6 -1 11 2 17 5 13 3 -3 4 -12 1 -19z m283 -215 c-19 -24 -16 -71
5 -79 15 -6 18 -81 4 -90 -6 -3 -13 -3 -17 1 -3 3 0 10 8 15 12 7 12 12 2 22
-10 10 -14 10 -21 0 -12 -19 -19 39 -15 116 2 34 -1 62 -5 62 -5 0 -6 12 -3
28 6 26 6 26 18 -13 l12 -40 2 50 1 50 14 -50 c12 -44 11 -52 -5 -72z m-289
-3 l-9 -45 -1 55 c-1 35 2 51 9 44 6 -6 6 -26 1 -54z m269 -200 c0 -5 -5 -10
-11 -10 -5 0 -7 5 -4 10 3 6 8 10 11 10 2 0 4 -4 4 -10z m-273 -77 c-2 -16 -4
-5 -4 22 0 28 2 40 4 28 2 -13 2 -35 0 -50z m313 42 c0 -14 -2 -25 -4 -25 -2
0 -6 11 -8 25 -3 14 -1 25 3 25 5 0 9 -11 9 -25z m-43 -72 c-3 -10 -5 -4 -5
12 0 17 2 24 5 18 2 -7 2 -21 0 -30z m20 5 c-3 -7 -5 -2 -5 12 0 14 2 19 5 13
2 -7 2 -19 0 -25z m-1 -135 c3 -69 2 -72 -5 -28 -5 28 -12 68 -16 90 -6 32 -5
38 5 28 8 -7 14 -44 16 -90z m42 -34 c-3 -8 -7 -3 -11 10 -4 17 -3 21 5 13 5
-5 8 -16 6 -23z m-27 -112 c-10 -9 -11 -8 -5 6 3 10 9 15 12 12 3 -3 0 -11 -7
-18z m31 -102 c3 -14 1 -28 -3 -31 -5 -3 -9 9 -9 25 0 38 6 40 12 6z m-15
-157 c-3 -8 -6 -5 -6 6 -1 11 2 17 5 13 3 -3 4 -12 1 -19z m43 -108 c0 -5 -2
-10 -4 -10 -3 0 -8 5 -11 10 -3 6 -1 10 4 10 6 0 11 -4 11 -10z m15 -190 c3
-5 1 -10 -4 -10 -6 0 -11 5 -11 10 0 6 2 10 4 10 3 0 8 -4 11 -10z m2540 -329
c-15 -14 -295 -26 -295 -13 0 16 25 20 170 21 82 1 130 -3 125 -8z m-334 -12
c11 -7 9 -9 -6 -9 -11 -1 -38 -4 -60 -7 -62 -10 -135 -9 -135 2 -1 18 176 30
201 14z m380 -106 c-9 -17 -10 -17 -17 1 -4 11 -2 21 7 27 18 11 24 -5 10 -28z
m-451 -38 c0 -7 -12 -17 -26 -24 -23 -10 -25 -16 -22 -59 3 -41 1 -47 -17 -47
-17 0 -20 7 -20 45 0 44 -1 45 -29 42 -16 -2 -33 3 -37 10 -6 9 -9 8 -10 -7
l0 -20 -9 20 c-5 11 -9 33 -9 49 -1 26 2 28 27 24 15 -3 50 -2 77 1 50 7 75
-4 75 -34z m-255 15 c4 -6 10 -8 14 -5 13 8 43 -32 39 -52 -3 -15 -15 -18 -81
-21 -42 -2 -77 -1 -77 1 0 2 5 18 11 35 13 38 78 67 94 42z m-377 -17 c-10 -2
-28 -2 -40 0 -13 2 -5 4 17 4 22 1 32 -1 23 -4z m1066 -18 c-3 -8 -22 -19 -43
-24 -53 -13 -211 -23 -211 -13 0 5 43 12 96 16 53 4 108 13 123 21 34 18 42
18 35 0z m-1144 -45 c0 -5 -5 -10 -11 -10 -5 0 -7 5 -4 10 3 6 8 10 11 10 2 0
4 -4 4 -10z m425 -62 c-9 -5 -24 -7 -33 -3 -15 6 -15 8 3 15 28 10 53 0 30
-12z m-679 -93 c17 -13 17 -14 2 -15 -10 0 -18 4 -18 9 0 5 -9 7 -20 4 -11 -3
-20 0 -20 6 0 16 33 14 56 -4z m449 -4 c-3 -6 -11 -11 -17 -11 -6 0 -6 6 2 15
14 17 26 13 15 -4z m-400 -51 c3 -5 1 -10 -4 -10 -6 0 -11 5 -11 10 0 6 2 10
4 10 3 0 8 -4 11 -10z m1180 -100 c5 -8 11 -8 20 0 12 10 88 0 102 -13 5 -5
-89 -34 -117 -36 -8 -1 -32 -4 -52 -7 -35 -6 -38 -4 -38 16 0 38 67 69 85 40z
m203 -91 c2 -23 2 -23 -13 -5 -18 24 -20 39 -2 34 6 -3 13 -15 15 -29z m-498
-29 c0 -16 -2 -30 -4 -30 -2 0 -6 14 -8 30 -3 17 -1 30 4 30 4 0 8 -13 8 -30z
m508 -22 c-2 -15 2 -23 12 -23 8 0 17 -11 18 -24 3 -20 1 -23 -15 -16 -10 4
-22 7 -28 7 -18 -1 -125 -49 -120 -54 3 -3 -14 -8 -37 -12 -24 -3 -56 -8 -72
-11 -15 -2 -41 2 -56 10 -15 8 -30 12 -33 9 -3 -3 -13 -2 -22 3 -13 8 -14 11
-3 20 17 13 158 34 185 27 11 -3 24 -1 27 5 4 6 22 11 41 11 47 0 64 8 81 41
17 35 26 37 22 7z m-877 -35 c1 -10 1 -35 0 -55 -1 -45 17 -58 81 -58 40 0 50
-6 108 -60 74 -69 78 -67 -91 -49 l-105 12 -21 51 c-20 48 -20 52 -4 71 11 13
17 35 16 63 -1 39 14 62 16 25z m219 3 c0 -8 -55 -66 -63 -66 -5 0 -6 8 -2 19
4 12 0 21 -12 25 -15 6 -15 8 -3 16 15 9 80 14 80 6z m260 -75 c-6 -12 -7 -21
-3 -22 4 0 -14 -6 -41 -14 -28 -7 -56 -11 -63 -9 -43 13 -46 15 -36 25 9 9
144 47 151 43 2 -1 -1 -12 -8 -23z m-986 -5 c7 -27 28 -33 91 -27 38 5 39 5
10 10 -37 8 -42 38 -5 32 35 -5 199 -2 231 5 22 4 28 1 33 -20 4 -18 11 -24
26 -21 15 3 20 -2 20 -19 0 -36 -20 -46 -120 -58 -76 -9 -94 -8 -101 3 -5 8
-6 21 -4 30 3 8 -2 24 -10 35 -14 18 -14 16 -9 -23 6 -42 6 -43 -22 -43 -16 0
-87 7 -159 15 -71 8 -131 15 -132 15 -2 0 -3 5 -3 12 0 20 32 48 55 48 13 0
28 7 35 15 20 24 57 19 64 -9z m1346 14 c0 -5 -8 -10 -17 -10 -15 0 -16 2 -3
10 19 12 20 12 20 0z m-2511 -75 c1 -23 -2 -26 -9 -15 -5 8 -9 31 -9 50 0 29
2 31 9 15 5 -11 9 -33 9 -50z m1607 -29 c-4 -17 -13 -26 -26 -26 -19 0 -19 1
-3 35 19 39 40 33 29 -9z m-1566 -162 c0 -13 -4 -24 -9 -24 -11 0 -22 40 -15
52 9 15 24 -2 24 -28z m-1 -134 c5 0 9 -35 10 -77 l2 -78 -20 39 c-11 21 -23
59 -27 84 -6 40 -5 44 10 39 10 -4 21 -7 25 -7z m89 -41 c-3 -8 -7 -3 -11 10
-4 17 -3 21 5 13 5 -5 8 -16 6 -23z m-21 -81 c-3 -8 -6 -5 -6 6 -1 11 2 17 5
13 3 -3 4 -12 1 -19z m-30 -20 c-3 -8 -6 -5 -6 6 -1 11 2 17 5 13 3 -3 4 -12
1 -19z"/>
<path d="M7622 9669 c2 -7 10 -15 17 -17 8 -3 12 1 9 9 -2 7 -10 15 -17 17 -8
3 -12 -1 -9 -9z"/>
<path d="M7560 9285 c0 -8 5 -15 10 -15 6 0 10 7 10 15 0 8 -4 15 -10 15 -5 0
-10 -7 -10 -15z"/>
<path d="M7594 9085 c4 -38 16 -43 16 -7 0 18 -4 32 -9 32 -5 0 -8 -11 -7 -25z"/>
<path d="M7676 9045 c4 -8 8 -15 10 -15 2 0 4 7 4 15 0 8 -4 15 -10 15 -5 0
-7 -7 -4 -15z"/>
<path d="M7020 8941 c0 -6 5 -13 10 -16 6 -3 10 1 10 9 0 9 -4 16 -10 16 -5 0
-10 -4 -10 -9z"/>
<path d="M7985 6260 c-3 -5 -1 -10 4 -10 6 0 11 5 11 10 0 6 -2 10 -4 10 -3 0
-8 -4 -11 -10z"/>
<path d="M10647 11423 c-18 -4 -18 -6 -1 -24 19 -21 34 -17 34 12 0 19 -2 20
-33 12z"/>
<path d="M11230 10923 c-1 -7 -4 -17 -5 -23 -1 -5 -4 -20 -5 -32 -2 -15 -5 -9
-10 17 l-7 40 -2 -37 c-1 -27 -5 -36 -15 -32 -7 3 -16 -2 -19 -10 -4 -9 -16
-16 -27 -16 -13 0 -20 -7 -20 -20 0 -30 -46 -70 -81 -70 -31 0 -31 -1 -27 -45
2 -25 0 -45 -4 -45 -18 0 -23 3 -20 11 1 6 -2 19 -8 29 -11 20 -11 20 -33 -1
-15 -15 -18 -23 -10 -26 8 -3 11 -14 7 -29 -4 -14 -1 -31 6 -39 10 -12 9 -15
-8 -15 -14 0 -20 5 -16 14 9 23 -14 28 -29 6 -7 -11 -16 -18 -18 -15 -3 2 -23
-1 -45 -7 -21 -6 -43 -11 -48 -9 -6 1 -19 0 -31 -3 -20 -5 -21 -11 -18 -66 2
-40 0 -60 -8 -60 -6 0 -24 -11 -41 -25 -19 -16 -42 -25 -65 -25 -23 0 -33 -4
-30 -12 2 -7 18 -12 36 -12 17 1 31 -2 31 -7 0 -5 -15 -9 -32 -9 -18 0 -40 -4
-48 -10 -9 -6 -19 -5 -29 3 -12 10 -13 8 -8 -14 6 -22 2 -29 -28 -45 -19 -10
-35 -24 -35 -30 0 -16 -45 -34 -86 -34 -21 0 -33 -4 -29 -10 9 -15 112 -12
180 6 33 8 83 19 110 24 28 6 73 16 100 24 28 7 52 10 55 5 7 -10 50 -8 44 3
-10 16 69 39 151 43 21 2 41 8 43 14 5 14 39 14 44 0 3 -9 10 -8 25 2 17 10
24 10 36 0 13 -10 18 -8 31 11 l16 22 0 -24 c0 -18 3 -21 9 -11 5 7 13 11 19
7 16 -10 22 61 21 269 -1 178 -11 351 -19 318z m-60 -110 c0 -5 -5 -15 -10
-23 -8 -12 -10 -11 -10 8 0 12 5 22 10 22 6 0 10 -3 10 -7z m-443 -429 c-3 -3
-12 -4 -19 -1 -8 3 -5 6 6 6 11 1 17 -2 13 -5z m-107 -58 c0 -15 -18 -31 -26
-23 -7 7 7 37 17 37 5 0 9 -6 9 -14z"/>
<path d="M5073 10628 c-26 -73 -47 -180 -41 -200 3 -7 10 14 17 47 6 33 21 90
32 128 27 87 20 106 -8 25z"/>
<path d="M3848 10603 c7 -3 16 -2 19 1 4 3 -2 6 -13 5 -11 0 -14 -3 -6 -6z"/>
<path d="M3578 10573 c7 -3 16 -2 19 1 4 3 -2 6 -13 5 -11 0 -14 -3 -6 -6z"/>
<path d="M4795 10526 c-9 -21 -15 -45 -13 -54 2 -10 12 5 21 32 20 59 14 75
-8 22z"/>
<path d="M10690 10470 c19 -13 30 -13 30 0 0 6 -10 10 -22 10 -19 0 -20 -2 -8
-10z"/>
<path d="M4771 10434 c0 -11 3 -14 6 -6 3 7 2 16 -1 19 -3 4 -6 -2 -5 -13z"/>
<path d="M4761 10394 c0 -11 3 -14 6 -6 3 7 2 16 -1 19 -3 4 -6 -2 -5 -13z"/>
<path d="M4751 10354 c0 -11 3 -14 6 -6 3 7 2 16 -1 19 -3 4 -6 -2 -5 -13z"/>
<path d="M11202 10280 c0 -14 2 -19 5 -12 2 6 2 18 0 25 -3 6 -5 1 -5 -13z"/>
<path d="M11231 10283 c0 -6 -4 -20 -7 -30 -5 -14 -4 -15 5 -7 7 7 11 20 8 30
-3 11 -5 14 -6 7z"/>
<path d="M9983 10243 c9 -11 17 -24 17 -30 0 -13 60 -43 87 -44 24 0 -14 -17
-82 -34 -73 -19 -259 -72 -340 -97 -84 -26 -62 -36 27 -12 174 46 361 87 481
104 77 11 146 29 165 43 14 11 17 31 2 22 -5 -3 -69 7 -142 24 -73 16 -155 32
-183 36 -49 7 -49 7 -32 -12z"/>
<path d="M10783 10229 c-18 -5 -35 -14 -38 -20 -11 -17 5 -80 21 -86 20 -7 74
16 74 33 0 19 16 18 24 -2 3 -8 10 -12 16 -9 6 4 4 17 -5 35 -8 16 -15 36 -15
45 0 17 -27 18 -77 4z"/>
<path d="M11156 9604 c-23 -6 -77 -20 -121 -32 -44 -12 -120 -30 -170 -42
-137 -31 -174 -43 -148 -48 11 -2 47 4 80 13 32 9 81 21 108 26 113 22 242 51
268 61 15 6 37 11 49 12 12 0 23 6 25 12 5 14 -34 13 -91 -2z"/>
<path d="M10630 9470 c-11 -7 -7 -10 17 -10 17 0 35 5 38 10 8 13 -35 13 -55
0z"/>
<path d="M10340 9400 c0 -5 9 -10 19 -10 11 0 23 5 26 10 4 6 -5 10 -19 10
-14 0 -26 -4 -26 -10z"/>
<path d="M6365 9320 c-38 -19 -40 -22 -40 -67 l0 -48 120 1 c166 2 273 12 304
29 l26 14 -40 16 c-22 10 -50 21 -63 26 -12 5 -21 14 -20 21 3 15 -70 26 -177
27 -50 0 -82 -6 -110 -19z"/>
<path d="M6990 9306 c0 -8 5 -18 10 -21 6 -3 10 3 10 14 0 12 -4 21 -10 21 -5
0 -10 -6 -10 -14z"/>
<path d="M2895 9290 c-13 -6 -2 -7 30 -3 28 3 52 7 54 9 9 8 -65 2 -84 -6z"/>
<path d="M6250 9251 c0 -11 5 -23 10 -26 6 -3 10 3 10 14 0 11 -4 23 -10 26
-5 3 -10 -3 -10 -14z"/>
<path d="M3403 9239 c4 -14 -3 -28 -24 -46 -16 -15 -29 -33 -29 -40 0 -8 -5
-24 -11 -36 l-12 -21 -8 23 c-13 33 -33 20 -37 -22 -2 -36 -1 -37 30 -37 18 0
53 5 78 12 25 6 69 10 99 9 31 -1 85 8 125 20 94 28 99 30 46 23 -25 -4 -51
-11 -58 -17 -10 -8 -16 -7 -22 4 -7 10 -3 16 10 21 11 4 20 13 20 20 0 9 -3 9
-10 -2 -15 -23 -24 -3 -12 25 17 38 15 47 -9 40 -16 -5 -19 -4 -14 5 6 9 -3
11 -36 7 -24 -2 -54 -8 -66 -12 -19 -6 -24 -2 -33 19 -11 31 -35 36 -27 5z"/>
<path d="M6835 9240 c-3 -6 1 -13 10 -16 19 -8 30 0 20 15 -8 14 -22 14 -30 1z"/>
<path d="M3763 9103 c3 -5 1 -18 -4 -31 -6 -16 -16 -23 -31 -22 -13 1 -25 1
-28 0 -39 -14 -109 -14 -215 1 -72 10 -86 9 -138 -8 -66 -23 -62 -38 13 -45
25 -3 99 -13 164 -23 131 -20 187 -14 228 25 23 21 37 110 17 110 -5 0 -8 -3
-6 -7z"/>
<path d="M2242 9079 c1 -12 9 -24 16 -27 9 -3 13 3 10 19 -1 12 -9 24 -16 27
-9 3 -13 -3 -10 -19z"/>
<path d="M1420 8993 c0 -12 7 -23 15 -27 13 -5 14 -2 4 17 -17 32 -19 33 -19
10z"/>
<path d="M1470 8980 c0 -5 5 -10 10 -10 6 0 10 5 10 10 0 6 -4 10 -10 10 -5 0
-10 -4 -10 -10z"/>
<path d="M4840 8852 c0 -23 5 -42 10 -42 7 0 8 14 4 38 -9 51 -14 53 -14 4z"/>
<path d="M4906 8821 c-4 -7 -5 -15 -2 -18 9 -9 19 4 14 18 -4 11 -6 11 -12 0z"/>
<path d="M1940 8710 c-206 -56 -390 -121 -470 -168 -30 -18 -40 -27 -28 -30 9
-2 19 -14 22 -28 11 -42 8 -43 416 93 l175 59 3 52 c2 29 -1 52 -5 51 -4 0
-55 -13 -113 -29z"/>
<path d="M8050 8588 c1 -7 7 -44 14 -81 15 -80 37 -114 29 -46 -7 67 -44 175
-43 127z"/>
<path d="M8020 8443 c0 -6 5 -15 11 -18 6 -4 8 -14 5 -22 -3 -8 -1 -11 4 -8
14 8 13 18 -5 41 -8 10 -15 14 -15 7z"/>
<path d="M8120 8406 c0 -8 4 -17 9 -20 5 -4 7 3 4 14 -6 23 -13 26 -13 6z"/>
<path d="M1097 8353 c-4 -3 -7 -82 -7 -174 0 -105 -4 -177 -11 -193 -9 -18 -9
-29 -1 -38 7 -10 10 -201 7 -643 -5 -710 -7 -781 -23 -797 -17 -17 -15 -38 4
-38 14 0 15 -16 11 -132 -3 -76 -1 -141 5 -151 6 -12 4 -33 -6 -65 -9 -26 -16
-65 -17 -87 -2 -22 -7 -45 -12 -52 -5 -7 -6 -17 -3 -22 12 -18 15 -145 5 -157
-7 -9 -7 -20 1 -35 13 -24 14 -181 2 -251 -9 -51 -7 -161 3 -178 4 -6 2 -32
-3 -58 -5 -26 -10 -60 -10 -77 -2 -116 -12 -179 -32 -200 -20 -22 -20 -23 -2
-27 18 -5 19 -16 18 -172 -1 -133 -4 -169 -15 -176 -12 -7 -12 -11 -2 -24 9
-11 10 -20 3 -28 -5 -7 -13 -62 -16 -123 -10 -168 -17 -224 -30 -222 -6 1 -12
-10 -14 -25 -2 -17 1 -28 9 -28 8 0 4 -9 -8 -22 -27 -30 -37 -73 -19 -87 11
-9 11 -19 0 -62 -8 -29 -16 -54 -19 -57 -3 -3 -1 -10 5 -17 10 -12 -4 -81 -22
-102 -5 -7 -7 -21 -3 -33 4 -12 2 -20 -5 -20 -8 0 -10 -9 -6 -24 4 -17 1 -26
-11 -30 -15 -6 -15 -8 -3 -16 8 -6 10 -10 5 -10 -7 0 -10 -28 -9 -72 1 -44 -5
-92 -14 -120 -14 -40 -21 -47 -49 -53 -18 -3 -45 -13 -60 -21 -27 -15 -24 -15
57 -10 55 4 80 2 70 -4 -13 -8 -12 -11 4 -23 18 -13 18 -14 -4 -30 -22 -15
-22 -21 -26 -219 -3 -192 -4 -204 -24 -220 -16 -13 -19 -21 -11 -36 5 -10 7
-23 3 -29 -4 -6 -7 -86 -7 -176 0 -104 -4 -165 -10 -164 -6 1 -9 -19 -7 -50 3
-43 1 -53 -12 -53 -19 0 -21 -11 -4 -28 9 -9 9 -18 0 -37 -7 -15 -10 -31 -6
-36 3 -6 0 -16 -6 -25 -11 -12 -14 -12 -26 3 -12 16 -13 14 -14 -18 0 -25 8
-44 25 -64 l26 -27 -23 -20 c-13 -11 -34 -24 -48 -30 l-25 -10 25 -13 c14 -8
33 -14 42 -15 12 0 15 -5 11 -15 -3 -9 -11 -14 -17 -12 -15 5 -35 -23 -36 -50
0 -12 -5 -25 -10 -28 -6 -3 -10 1 -10 9 0 9 -4 16 -10 16 -5 0 -10 -9 -10 -20
0 -11 -4 -20 -10 -20 -5 0 -10 -11 -10 -25 0 -14 6 -25 13 -25 29 0 56 13 60
29 3 11 5 10 6 -5 1 -15 -8 -25 -29 -34 -17 -7 -30 -18 -30 -25 0 -17 -23 -25
-68 -25 -42 0 -33 16 13 23 22 3 19 4 -10 3 -29 -1 -41 -6 -43 -18 -2 -9 5
-19 15 -22 10 -3 -7 -4 -38 -2 -47 4 -57 1 -68 -16 -9 -14 -19 -18 -35 -14
-12 3 -52 -3 -88 -13 -60 -17 -66 -18 -87 -2 -20 15 -22 27 -26 131 -8 211
-17 375 -21 379 -17 18 -29 -134 -12 -156 6 -7 5 -19 -1 -31 -5 -10 -10 -50
-10 -88 1 -38 1 -87 1 -109 0 -56 -10 -153 -17 -165 -3 -6 -19 -10 -34 -10
-15 0 -31 -3 -34 -7 -4 -3 -22 -8 -39 -10 -49 -5 -58 -10 -58 -34 0 -18 5 -21
32 -17 18 3 42 9 52 13 13 5 17 5 13 -2 -4 -5 0 -19 9 -29 14 -19 15 -18 30 3
15 20 18 21 32 7 9 -9 11 -19 6 -22 -6 -4 -11 -31 -12 -61 -1 -34 -9 -63 -22
-81 -11 -15 -20 -35 -20 -43 0 -15 -40 -27 -91 -27 -16 0 -29 -4 -29 -10 0 -5
18 -10 40 -10 22 0 40 -4 40 -10 0 -5 7 -7 16 -3 9 3 20 0 25 -8 12 -20 11
-29 -5 -29 -9 0 -12 -8 -8 -25 3 -18 0 -25 -12 -25 -11 0 -16 9 -16 30 0 28
-2 30 -40 30 l-40 0 0 -695 0 -695 4929 0 c3938 0 4930 2 4934 12 4 10 7 11
18 1 10 -10 162 -13 691 -13 l678 0 -2 858 c-2 509 -7 856 -12 854 -16 -6 -28
26 -17 47 6 10 7 21 4 25 -3 3 -1 6 5 6 7 0 12 7 12 16 0 8 -4 12 -10 9 -5 -3
-10 -1 -10 4 0 17 -19 13 -37 -9 -10 -11 -23 -20 -29 -20 -14 0 -60 -42 -66
-61 -4 -12 -7 -12 -22 0 -14 12 -19 11 -35 -3 -18 -16 -20 -16 -35 6 l-16 23
-38 -20 c-20 -11 -48 -32 -62 -48 -14 -15 -38 -34 -54 -42 -26 -14 -30 -14
-42 2 -20 27 -18 46 4 34 25 -13 73 -2 70 17 -4 21 81 81 115 81 16 1 42 10
58 22 20 14 38 19 54 15 19 -5 24 -2 27 16 2 17 12 24 38 28 20 4 50 17 68 30
l32 24 0 179 0 179 -22 -6 c-13 -3 -35 -6 -50 -6 -21 0 -28 -5 -28 -19 0 -11
8 -22 18 -25 9 -3 4 -3 -13 0 -16 3 -43 5 -59 5 -16 0 -34 3 -40 8 -6 5 -21 5
-35 0 -19 -8 -21 -12 -11 -24 16 -20 12 -23 -34 -29 -48 -6 -55 -13 -31 -30
19 -14 13 -36 -9 -36 -8 0 -20 10 -28 21 -19 30 -108 35 -108 7 0 -10 -4 -18
-10 -18 -5 0 -10 5 -10 10 0 6 -8 10 -18 10 -10 0 -22 4 -28 10 -5 5 -36 10
-69 11 -33 2 -66 7 -72 12 -9 6 -18 6 -26 -2 -16 -13 -70 0 -93 23 -8 9 -22
16 -30 16 -26 0 -5 18 29 25 17 4 41 12 52 18 32 18 106 35 126 30 13 -4 19 0
19 11 0 10 9 16 24 16 13 0 29 7 36 15 7 8 22 15 34 15 11 0 34 7 50 15 24 13
35 14 58 4 16 -6 26 -14 23 -17 -9 -9 17 -32 36 -32 12 0 19 7 19 19 0 12 8
21 23 24 15 3 11 5 -13 6 -51 3 -71 13 -60 30 10 17 94 20 184 8 41 -6 56 -6
52 2 -4 6 -27 11 -51 11 -24 0 -47 5 -50 11 -4 6 -13 8 -21 5 -26 -10 -14 2
18 18 19 10 57 16 100 16 62 0 72 3 93 26 l25 27 0 319 0 320 -32 -7 c-18 -4
-37 -11 -43 -15 -5 -4 -39 -13 -75 -20 -36 -7 -69 -16 -75 -20 -5 -4 -23 -10
-40 -13 -29 -5 -91 -24 -225 -66 -131 -43 -196 -61 -235 -67 -22 -4 -69 -17
-105 -29 -36 -12 -92 -30 -125 -40 -33 -10 -87 -25 -120 -35 -33 -10 -85 -26
-116 -35 -80 -24 -87 -30 -66 -53 21 -23 22 -32 2 -32 -8 0 -15 -4 -15 -10 0
-5 4 -10 9 -10 5 0 7 -9 4 -20 -3 -11 -10 -20 -15 -20 -6 0 -8 9 -5 19 7 29
-8 48 -27 32 -20 -17 -38 -4 -30 21 6 20 4 21 -47 14 -30 -3 -81 -15 -113 -26
-33 -11 -65 -20 -73 -20 -7 0 -13 -9 -13 -20 0 -11 5 -20 11 -20 5 0 7 -5 4
-11 -5 -6 -11 -4 -19 6 -6 9 -26 17 -44 17 -30 1 -32 4 -31 32 2 54 -14 176
-23 176 -5 0 -6 -46 -2 -105 6 -97 5 -107 -12 -120 -10 -8 -30 -15 -44 -15
-14 0 -61 -12 -105 -26 -94 -30 -247 -73 -290 -81 -16 -3 -34 -11 -40 -17 -5
-7 -28 -16 -50 -19 -66 -10 -75 -13 -87 -25 -7 -7 -25 -12 -41 -12 -15 0 -37
-4 -47 -10 -26 -14 -47 -3 -59 31 -6 16 -31 50 -55 76 l-46 47 -23 -22 c-13
-12 -30 -22 -39 -22 -9 0 -18 -9 -21 -19 -2 -10 -15 -24 -27 -31 -12 -7 -20
-7 -16 -2 8 13 -64 -5 -78 -19 -6 -5 -20 -9 -33 -9 -13 0 -23 -4 -23 -10 0 -5
-14 -10 -30 -10 -19 0 -41 -10 -57 -25 -15 -13 -39 -27 -54 -30 -15 -4 -30
-13 -33 -21 -4 -10 -13 -13 -26 -9 -14 5 -32 -2 -55 -19 -38 -29 -46 -32 -43
-14 2 7 -3 13 -9 12 -39 -3 -44 -5 -38 -13 3 -5 -19 -15 -50 -21 -30 -6 -57
-16 -60 -21 -4 -5 -15 -9 -26 -9 -11 0 -27 -7 -35 -15 -9 -8 -29 -15 -45 -15
-17 0 -28 -4 -24 -10 3 -6 -10 -9 -32 -9 -52 1 -105 -11 -124 -27 -9 -8 -19
-11 -22 -7 -8 8 -140 -27 -148 -39 -3 -6 -27 -10 -53 -10 -27 0 -46 -4 -46
-11 0 -8 -3 -8 -11 0 -7 7 -18 8 -28 4 -39 -19 -119 -44 -156 -47 -72 -7 -105
-15 -105 -24 0 -5 -7 -7 -16 -3 -9 3 -19 2 -23 -3 -10 -15 -106 -44 -109 -34
-5 12 -39 13 -46 1 -3 -5 -23 -12 -43 -16 -21 -4 -51 -13 -68 -20 -78 -34
-123 -46 -184 -51 -79 -7 -147 -37 -167 -75 -8 -15 -31 -40 -53 -56 -67 -49
-191 -155 -191 -164 0 -5 9 -9 20 -9 11 0 20 3 20 8 0 9 91 42 117 42 11 0 23
3 27 7 7 8 48 19 156 44 25 6 49 15 55 20 5 5 18 9 30 9 11 0 33 7 49 15 16 9
40 16 53 17 12 1 23 6 23 11 0 4 8 7 18 6 9 -1 30 3 47 10 16 7 37 10 47 8 10
-3 18 -1 18 3 0 5 32 14 70 20 39 6 70 16 70 21 0 5 9 9 20 9 11 0 23 7 26 15
4 8 18 15 31 15 14 0 31 7 37 15 8 10 34 15 86 16 41 1 80 6 87 11 6 5 33 11
60 13 l48 4 -50 -20 c-27 -10 -67 -22 -88 -26 -21 -3 -44 -14 -50 -24 -7 -11
-19 -19 -29 -19 -9 0 -19 -6 -21 -12 -4 -10 -6 -10 -6 0 -1 16 -23 15 -80 -3
-137 -44 -145 -45 -153 -33 -6 10 -8 10 -8 0 0 -17 -130 -69 -192 -76 -13 -2
-66 -17 -118 -34 -158 -50 -272 -84 -330 -98 -155 -37 -183 -51 -325 -165
-111 -89 -227 -159 -264 -159 -18 0 -30 4 -26 9 3 6 -4 15 -15 21 -29 15 -25
32 13 54 31 18 31 19 11 28 -30 14 -50 53 -36 70 6 8 9 27 7 43 -2 17 3 37 12
47 8 9 12 22 8 27 -3 6 -2 11 4 11 5 0 14 -8 20 -17 17 -30 24 -6 8 26 -13 26
-13 31 -1 31 8 0 14 7 14 16 0 8 4 13 8 10 5 -3 6 8 4 25 -3 19 0 29 8 29 7 0
33 16 57 36 32 26 43 42 41 58 -2 11 -8 20 -14 19 -5 -1 -21 16 -34 38 -14 21
-28 39 -32 39 -10 0 -50 41 -72 74 -11 17 -21 24 -25 18 -4 -7 -20 1 -41 21
-19 18 -42 33 -50 34 -8 1 -40 10 -70 22 -30 11 -81 25 -112 31 -32 6 -61 16
-64 22 -4 7 -9 6 -14 -1 -4 -8 -17 -2 -39 18 -18 17 -37 31 -41 31 -4 0 -10 9
-13 20 -3 11 -12 20 -21 20 -15 0 -15 2 1 19 13 14 33 20 63 21 66 1 210 -19
245 -35 42 -19 131 -24 127 -7 -1 7 5 12 15 10 12 -2 19 4 21 18 4 28 -45 59
-116 75 -29 6 -54 15 -58 20 -3 5 -24 9 -47 9 -41 0 -165 23 -205 37 -12 5
-21 12 -22 18 0 5 -17 8 -38 6 -26 -1 -43 3 -52 14 -7 9 -21 13 -31 10 -11 -4
-19 -2 -19 3 0 12 -70 47 -86 44 -7 -1 -14 5 -18 13 -4 12 -10 13 -25 6 -17
-9 -21 -4 -42 52 -13 34 -24 67 -25 72 -1 6 -3 15 -5 20 -2 6 0 33 4 61 9 66
2 84 -33 84 -33 0 -47 28 -31 58 14 27 56 52 86 52 29 0 33 16 6 25 -11 3 -37
23 -59 43 -21 20 -67 56 -101 80 l-63 44 27 14 c15 7 44 27 65 44 21 16 42 30
47 30 5 0 23 13 40 29 24 22 42 29 74 29 23 1 50 -3 59 -8 15 -8 17 -4 17 30
0 22 -3 40 -6 40 -4 0 -23 -11 -43 -25 -43 -29 -54 -31 -62 -10 -3 8 -14 15
-25 15 -11 0 -23 5 -26 10 -3 6 -18 7 -32 4 -16 -4 -28 -2 -34 7 -6 10 -9 8
-9 -8 0 -29 -21 -29 -48 0 -30 32 -46 44 -70 51 -12 4 -22 14 -22 21 0 15 -44
31 -67 27 -7 -2 -13 4 -13 13 0 8 6 15 13 15 15 0 19 29 5 46 -5 8 -1 14 14
18 21 6 22 7 6 19 -13 10 -16 25 -13 60 4 54 10 67 31 67 8 0 14 8 14 17 0 42
48 160 71 177 10 7 23 25 29 40 8 21 15 27 30 23 13 -3 24 1 30 14 7 13 7 19
0 19 -5 0 -10 9 -10 20 0 15 7 20 24 20 18 0 29 9 40 32 9 17 16 37 16 44 0 7
10 20 23 29 12 8 22 19 22 23 0 4 10 7 21 7 19 -1 21 3 13 24 -5 13 -7 26 -4
29 3 3 5 0 5 -7 0 -7 13 0 29 16 27 27 27 29 12 53 -13 19 -13 22 -1 15 24
-15 71 -16 69 -2 -5 37 15 54 24 20 4 -14 5 -13 6 4 0 12 6 25 11 28 6 4 8 11
4 16 -3 5 2 23 10 41 9 17 16 37 16 45 0 7 5 13 11 13 7 0 9 10 5 25 -6 22 -2
27 23 36 26 9 29 14 21 34 -9 25 -4 55 17 95 7 14 13 31 13 38 0 6 4 12 9 12
10 0 25 48 22 68 -1 6 2 12 7 12 5 0 9 28 9 62 1 36 6 64 12 66 6 2 11 11 11
20 0 22 29 104 42 119 6 7 8 22 5 33 -3 11 -2 20 1 20 4 0 8 28 10 62 1 34 7
68 14 75 10 13 14 30 21 100 1 12 13 33 27 48 16 17 21 29 14 33 -16 10 -27
50 -17 64 4 7 9 24 9 38 1 14 4 32 7 40 3 8 8 39 11 69 3 29 10 59 17 67 6 8
9 23 6 35 -4 15 0 23 14 26 21 6 25 18 8 28 -7 5 -4 14 7 27 10 10 19 31 20
46 3 49 4 53 13 47 5 -3 12 -1 16 4 3 5 -2 14 -10 19 -14 7 -14 15 -5 53 7 24
14 60 17 79 3 19 17 53 31 75 20 30 27 55 28 100 2 33 5 77 9 98 3 20 1 37 -4
37 -5 0 -11 9 -14 20 -3 12 -1 17 5 14 5 -3 12 3 15 15 6 23 5 23 50 27 20 1
42 13 58 30 30 32 31 40 8 53 -11 7 -13 11 -5 11 24 0 2 40 -50 91 -28 27 -57
49 -67 50 -9 0 0 8 19 17 l35 16 -33 4 c-24 2 -36 10 -45 30 -14 32 -92 112
-110 112 -7 0 -23 9 -37 20 -14 11 -33 20 -44 20 -15 0 -16 3 -7 14 10 11 8
16 -9 21 -23 7 -83 60 -166 145 -29 30 -57 58 -61 63 -92 89 -125 117 -138
117 -8 0 -17 10 -19 23 -3 12 -7 34 -10 48 -4 17 0 31 8 38 8 7 17 31 21 54 4
23 17 65 30 92 12 28 26 66 30 85 7 30 30 85 66 152 5 10 9 23 9 28 0 6 13 38
30 71 l30 60 -37 -33 c-64 -57 -113 -111 -113 -124 0 -7 -8 -19 -18 -26 -10
-7 -21 -21 -25 -30 -6 -16 -37 -26 -37 -12 0 20 34 116 44 127 7 7 25 31 40
55 14 23 31 42 36 42 5 0 15 10 21 23 12 21 11 21 -7 7 -81 -62 -123 -100
-149 -134 -44 -57 -55 -69 -61 -64 -3 3 2 23 10 43 20 48 21 45 -17 45 -31 0
-33 -2 -35 -36 -3 -47 -21 -82 -32 -64 -5 8 -10 -3 -15 -29 -4 -23 -13 -45
-21 -48 -9 -3 -12 -14 -8 -32 4 -18 3 -22 -4 -12 -8 11 -11 9 -17 -8 -7 -23
-21 -28 -28 -8 -6 15 -15 -18 -31 -114 l-12 -74 -60 -31 c-45 -23 -81 -33
-140 -39 -161 -15 -311 -71 -414 -156 -25 -20 -77 -53 -115 -72 -122 -61 -261
-190 -350 -326 -48 -72 -130 -238 -154 -309 -11 -32 -25 -112 -31 -177 -5 -66
-15 -149 -21 -185 -6 -36 -12 -215 -14 -399 -4 -305 -8 -370 -40 -626 -20
-155 -27 -295 -31 -610 -2 -198 -8 -407 -14 -465 -21 -237 -22 -267 -7 -301
29 -69 114 -116 268 -149 51 -11 96 -23 100 -28 3 -4 14 -52 23 -107 19 -113
56 -258 90 -355 20 -56 22 -74 15 -125 -5 -33 -15 -105 -23 -160 -8 -55 -23
-158 -34 -230 -11 -71 -25 -177 -31 -235 -7 -58 -16 -127 -21 -155 -5 -27 -11
-70 -15 -95 -6 -52 -25 -90 -25 -53 0 12 -5 45 -11 74 -12 54 -29 52 -29 -3 0
-19 -5 -28 -15 -28 -13 0 -14 -2 -3 -14 7 -8 18 -13 23 -13 6 1 11 -11 13 -28
2 -26 1 -27 -9 -12 -24 40 -99 45 -99 6 0 -23 -27 -25 -55 -5 -18 13 -16 16
38 41 41 20 56 32 52 42 -3 8 -8 26 -11 39 -3 13 -13 24 -20 24 -10 0 -13 -7
-9 -23 4 -12 1 -35 -4 -50 -9 -23 -16 -27 -50 -27 -45 0 -61 -14 -34 -29 17
-9 17 -10 0 -16 -29 -12 -20 -35 13 -35 17 0 30 -4 30 -10 0 -5 -7 -10 -15
-10 -8 0 -15 -4 -15 -10 0 -5 -7 -10 -15 -10 -8 0 -15 -4 -15 -10 0 -5 -7 -10
-15 -10 -13 0 -13 3 -3 20 10 16 10 24 0 40 -10 16 -10 20 0 20 9 0 8 3 -2 10
-23 15 -30 12 -30 -15 0 -18 -5 -25 -20 -25 -11 0 -20 -4 -20 -9 0 -13 26 -32
33 -24 4 3 7 1 7 -4 0 -6 -5 -13 -12 -15 -7 -3 -13 -28 -15 -62 -1 -32 -4 -61
-7 -64 -9 -8 15 -33 25 -26 5 3 9 14 9 25 0 15 7 19 33 19 29 -1 30 -2 12 -12
-37 -20 -54 -45 -57 -84 -3 -44 -25 -55 -53 -28 -11 12 -15 25 -10 43 11 44
10 74 -2 78 -7 3 -10 -3 -6 -15 2 -10 -9 -42 -27 -71 -23 -41 -28 -56 -19 -67
11 -13 5 -34 -11 -34 -5 0 -11 8 -13 18 -3 9 -5 -4 -6 -30 -1 -36 -5 -48 -16
-48 -8 0 -15 -4 -15 -10 0 -9 14 -14 33 -11 11 2 8 -13 -5 -31 -7 -9 -22 -18
-33 -20 -14 -2 -21 -12 -23 -33 -5 -40 -17 -51 -38 -34 -14 12 -19 11 -33 -8
l-18 -21 -11 32 c-7 18 -12 46 -12 63 0 18 -5 54 -12 82 -9 40 -9 54 0 63 9 9
12 4 12 -23 1 -29 2 -31 11 -16 6 10 8 26 4 35 -16 38 -22 80 -14 95 6 9 5 18
-1 22 -5 3 -10 11 -10 16 0 6 5 7 10 4 6 -3 10 -2 10 4 0 5 -4 11 -9 13 -14 5
-26 275 -41 963 -5 248 -12 502 -15 565 -3 63 -9 304 -15 535 -11 468 -17 587
-32 596 -7 4 -6 14 1 27 7 14 8 23 1 27 -6 3 -13 -1 -17 -11 -6 -16 3 -1583
12 -2154 10 -590 12 -1013 6 -985 -5 24 -8 27 -16 15 -8 -12 -11 -9 -15 15
l-6 30 -17 -34 c-11 -23 -14 -38 -7 -46 6 -8 6 -21 -3 -38 -12 -27 -27 -36
-27 -17 0 13 -27 13 -35 -1 -10 -15 26 -39 54 -36 19 1 26 -4 32 -25 4 -16 3
-28 -2 -28 -5 0 -9 6 -9 14 0 8 -7 16 -15 20 -12 4 -14 0 -9 -18 3 -13 1 -26
-4 -30 -11 -6 -44 27 -40 40 1 5 -3 18 -9 30 -17 30 -6 66 18 59 16 -5 19 -1
19 27 0 22 -7 37 -20 46 -22 13 -27 3 -8 -16 8 -8 8 -15 -3 -28 -13 -16 -14
-15 -20 12 -3 16 -3 35 1 42 4 8 3 37 -2 65 -14 87 -17 156 -8 162 10 6 6 128
-5 145 -3 5 -1 10 6 10 8 0 8 4 -1 15 -8 9 -10 29 -7 49 3 19 0 39 -6 45 -9 9
-8 17 2 33 11 18 11 23 -3 33 -19 14 -22 55 -3 55 9 0 9 2 -1 8 -9 6 -13 47
-14 145 -1 75 1 139 5 143 3 4 1 16 -5 27 -6 11 -11 83 -12 164 0 78 -4 143
-7 143 -3 0 -6 41 -6 91 -2 105 -11 169 -24 169 -6 0 -6 8 1 19 7 14 7 28 0
47 -6 15 -8 41 -4 58 5 17 7 35 6 39 -1 4 -4 43 -7 86 -5 97 -13 131 -31 131
-8 0 -19 12 -24 26 -8 20 -16 25 -38 22 -25 -3 -27 0 -28 32 -1 19 -2 40 -3
47 -2 17 -31 4 -31 -13 0 -8 -4 -14 -10 -14 -10 0 -5 18 17 60 7 14 13 31 13
38 0 11 13 16 33 13 12 -2 8 8 -13 29 l-20 20 0 -25 c0 -18 -5 -25 -19 -25
-12 0 -21 -8 -23 -20 -4 -29 -21 -30 -33 -2 -7 15 -18 22 -37 22 -51 0 -37 18
18 22 63 5 82 22 57 50 -15 17 -15 20 1 37 14 16 15 20 2 30 -11 10 -20 10
-37 1 -28 -15 -41 3 -28 37 13 34 13 33 -28 34 l-38 1 40 12 c51 16 51 36 1
50 -36 10 -38 12 -21 26 14 11 19 12 22 3 6 -18 33 -16 33 2 0 8 -9 15 -19 15
-11 0 -23 4 -26 10 -9 15 -25 12 -25 -4 0 -17 -24 -28 -45 -20 -18 7 -20 40
-2 47 7 3 27 3 45 1 34 -4 41 6 18 25 -11 9 -19 9 -34 0 -12 -7 -27 -9 -38 -4
-11 5 -23 7 -27 6 -20 -4 -17 31 4 49 13 10 18 19 11 20 -9 0 -11 13 -7 43 2
23 2 34 -1 25 -7 -22 -18 -23 -34 -3 -7 8 -21 15 -31 15 -23 0 -24 13 -4 30
19 16 19 50 0 50 -8 0 -15 3 -15 8 0 4 -23 8 -51 9 -58 2 -93 22 -43 24 16 1
34 2 39 4 6 1 16 3 23 3 8 1 12 7 10 13 -2 6 -6 9 -10 7 -3 -2 -15 8 -27 22
l-20 25 -1 -22 c0 -19 -6 -23 -29 -23 -42 0 -47 16 -9 29 36 13 34 18 -11 31
-28 8 -31 7 -31 -14 0 -26 -23 -50 -57 -60 -13 -4 -23 -15 -23 -23 0 -9 -2
-14 -5 -11 -11 11 8 98 21 98 8 0 14 9 14 20 0 11 5 20 11 20 8 0 8 4 -1 15
-6 8 -8 20 -4 26 4 7 -1 18 -11 26 -18 12 -18 13 3 13 29 0 28 13 -3 30 -14 7
-25 22 -25 33 0 16 -3 17 -15 7 -8 -7 -15 -19 -15 -26 0 -19 -34 -18 -50 1
-21 26 -4 45 40 45 22 0 40 5 40 10 0 6 -18 10 -40 10 -22 0 -40 5 -40 10 0 6
18 10 40 10 22 0 40 5 40 10 0 6 -19 10 -42 11 -31 0 -37 3 -23 8 15 6 11 9
-20 14 -77 13 -75 14 -76 -60 -1 -38 -3 -60 -6 -50 -6 22 -29 22 -42 0 -13
-24 -24 -10 -36 44 -9 41 -14 48 -47 59 -23 8 -40 9 -43 3 -4 -5 -1 -9 4 -9 6
0 11 -7 11 -16 0 -13 -3 -14 -13 -5 -11 8 -17 5 -26 -15 -14 -32 -20 -28 -25
17 -2 25 -8 34 -21 34 -21 0 -31 -41 -15 -60 8 -9 6 -14 -5 -19 -10 -4 -15
-19 -15 -51 0 -43 -2 -46 -40 -62 -22 -10 -40 -21 -40 -26 0 -4 5 -5 11 -2 5
4 22 4 36 0 24 -6 24 -7 8 -19 -10 -7 -28 -11 -39 -8 -21 4 -21 4 -1 -11 11
-9 22 -11 23 -6 2 5 9 9 15 9 7 -1 1 -10 -13 -22 -16 -14 -21 -22 -12 -25 23
-8 12 -23 -16 -23 -34 0 -45 9 -32 25 7 8 5 12 -5 12 -8 0 -15 -4 -15 -8 0 -4
-12 -1 -27 7 -16 7 -32 14 -36 14 -12 0 -37 27 -37 39 0 5 7 16 15 25 13 13
13 16 0 30 -8 8 -15 20 -15 26 0 7 -6 10 -14 7 -9 -4 -19 5 -26 23 -14 34 -5
71 16 63 9 -3 14 2 14 16 0 23 -25 29 -34 9 -3 -7 -4 -2 -1 12 5 32 -4 72 -16
64 -5 -3 -9 6 -9 20 0 16 6 26 15 26 16 0 20 16 6 24 -5 3 -7 34 -5 69 3 41 1
55 -5 42 -6 -15 -9 -6 -9 35 0 30 -5 237 -11 460 -5 223 -12 494 -14 603 -2
133 -7 201 -15 209 -7 7 -12 45 -12 94 l0 82 30 7 c41 9 166 23 270 30 47 3
137 10 200 15 434 37 652 39 684 7 10 -9 14 -22 11 -27 -5 -8 11 -10 46 -8 51
3 54 4 60 35 9 47 27 63 68 63 20 0 43 4 51 10 11 7 8 11 -15 21 -23 9 -97 7
-325 -5 -471 -26 -612 -35 -660 -41 -25 -4 -77 -8 -117 -10 -60 -3 -71 -1 -66
11 13 35 -89 81 -154 69 -37 -7 -39 -12 -18 -62 8 -20 13 -38 11 -40 -3 -3
-20 -6 -38 -6 l-33 -2 -3 83 c-2 49 2 89 8 97 6 8 8 51 5 116 -2 57 -7 327
-10 599 -7 548 -21 1207 -26 1230 -2 8 -11 18 -19 22 -20 9 -75 10 -83 1z
m180 -4045 c-3 -7 -5 -2 -5 12 0 14 2 19 5 13 2 -7 2 -19 0 -25z m385 -1 c-24
-11 -38 -5 -28 11 3 6 16 8 28 4 l22 -5 -22 -10z m68 13 c0 -5 -9 -10 -21 -10
-11 0 -17 5 -14 10 3 6 13 10 21 10 8 0 14 -4 14 -10z m-44 -52 c4 4 5 2 1 -4
-3 -5 -22 -8 -43 -6 -23 3 -32 7 -23 12 7 5 22 4 35 0 12 -5 25 -6 30 -2z
m312 -15 c-3 -5 -11 -23 -18 -40 -13 -31 -30 -44 -30 -24 0 39 14 71 32 71 11
0 18 -3 16 -7z m-408 -83 c-19 -13 -30 -13 -30 0 0 6 10 10 23 10 18 0 19 -2
7 -10z m-260 -10 c0 -5 -4 -10 -10 -10 -5 0 -10 5 -10 10 0 6 5 10 10 10 6 0
10 -4 10 -10z m310 -50 c0 -5 -5 -10 -11 -10 -5 0 -7 5 -4 10 3 6 8 10 11 10
2 0 4 -4 4 -10z m-150 -20 c0 -5 -2 -10 -4 -10 -3 0 -8 5 -11 10 -3 6 -1 10 4
10 6 0 11 -4 11 -10z m590 -60 c0 -5 -4 -10 -10 -10 -5 0 -10 5 -10 10 0 6 5
10 10 10 6 0 10 -4 10 -10z m2120 -30 c0 -5 -5 -10 -11 -10 -5 0 -7 5 -4 10 3
6 8 10 11 10 2 0 4 -4 4 -10z m48 -20 c-9 -13 -24 -20 -46 -20 -18 0 -31 -4
-27 -9 3 -5 1 -12 -5 -16 -5 -3 -10 2 -10 12 0 15 -2 15 -9 4 -6 -10 -5 -22 5
-35 17 -24 18 -36 4 -36 -6 0 -20 19 -30 42 -18 40 -18 43 -2 52 9 5 34 9 54
7 21 -1 38 3 38 9 0 5 9 10 20 10 18 0 19 -2 8 -20z m-2108 -10 c0 -5 -7 -10
-16 -10 -8 0 -12 5 -9 10 3 6 10 10 16 10 5 0 9 -4 9 -10z m90 -40 c0 -5 -4
-10 -10 -10 -5 0 -10 5 -10 10 0 6 5 10 10 10 6 0 10 -4 10 -10z m1977 -12
c-3 -8 -6 -5 -6 6 -1 11 2 17 5 13 3 -3 4 -12 1 -19z m-1767 -348 c0 -5 -2
-10 -4 -10 -3 0 -8 5 -11 10 -3 6 -1 10 4 10 6 0 11 -4 11 -10z m23 -117 c-7
-2 -19 -2 -25 0 -7 3 -2 5 12 5 14 0 19 -2 13 -5z m134 -265 c-3 -7 -5 -2 -5
12 0 14 2 19 5 13 2 -7 2 -19 0 -25z m78 -168 c0 -7 -6 -15 -12 -17 -8 -3 -13
4 -13 17 0 13 5 20 13 18 6 -3 12 -11 12 -18z m8435 -230 c0 -5 -5 -10 -11
-10 -5 0 -7 5 -4 10 3 6 8 10 11 10 2 0 4 -4 4 -10z m-213 -76 c-3 -3 -12 -4
-19 -1 -8 3 -5 6 6 6 11 1 17 -2 13 -5z m-1239 -92 c6 -18 -15 -14 -22 4 -4
10 -1 14 6 12 6 -2 14 -10 16 -16z m322 -8 c0 -8 -5 -12 -10 -9 -6 4 -8 11 -5
16 9 14 15 11 15 -7z m160 -42 c0 -15 -2 -15 -10 -2 -13 20 -13 33 0 25 6 -3
10 -14 10 -23z m-157 -5 c4 3 7 2 7 -4 0 -6 -11 -18 -25 -27 -24 -16 -25 -16
-25 7 0 30 10 40 25 27 7 -5 15 -7 18 -3z m-643 -12 c10 -12 10 -15 -4 -15 -9
0 -16 7 -16 15 0 8 2 15 4 15 2 0 9 -7 16 -15z m375 -16 c9 -39 -1 -50 -15
-15 -12 34 -13 46 -1 46 5 0 12 -14 16 -31z m710 21 c-3 -5 -16 -10 -28 -10
-18 0 -19 2 -7 10 20 13 43 13 35 0z m-1135 -20 c0 -5 -2 -10 -4 -10 -3 0 -8
5 -11 10 -3 6 -1 10 4 10 6 0 11 -4 11 -10z m400 -17 c0 -12 -2 -12 -15 1 -8
8 -15 17 -15 20 0 3 7 3 15 0 8 -4 15 -13 15 -21z m-500 -13 c0 -5 -7 -10 -16
-10 -8 0 -12 5 -9 10 3 6 10 10 16 10 5 0 9 -4 9 -10z m138 -33 c5 -37 -15
-34 -20 3 -3 19 -1 29 6 27 6 -2 12 -16 14 -30z m618 6 c-10 -10 -19 5 -10 18
6 11 8 11 12 0 2 -7 1 -15 -2 -18z m-225 -20 c7 -18 6 -30 -1 -37 -5 -5 -10
-19 -10 -30 0 -17 -2 -18 -10 -6 -11 17 -13 61 -4 84 8 22 13 20 25 -11z
m-661 7 c0 -5 -4 -10 -10 -10 -5 0 -10 5 -10 10 0 6 5 10 10 10 6 0 10 -4 10
-10z m1067 -6 c-3 -3 -12 -4 -19 -1 -8 3 -5 6 6 6 11 1 17 -2 13 -5z m-1117
-14 c0 -5 -7 -10 -16 -10 -8 0 -12 5 -9 10 3 6 10 10 16 10 5 0 9 -4 9 -10z
m-103 -26 c-3 -3 -12 -4 -19 -1 -8 3 -5 6 6 6 11 1 17 -2 13 -5z m-46 -13 c-8
-5 -20 -7 -28 -4 -21 8 -15 13 15 13 20 0 23 -3 13 -9z m539 -21 c0 -5 -4 -10
-10 -10 -5 0 -10 5 -10 10 0 6 5 10 10 10 6 0 10 -4 10 -10z m-807 -54 c15 0
27 -5 26 -11 0 -5 -8 -9 -19 -8 -11 2 -20 -6 -24 -20 -9 -35 -8 -38 19 -31 20
5 26 1 35 -20 5 -14 14 -26 20 -26 5 0 10 -9 10 -20 0 -11 -4 -20 -8 -20 -10
0 -48 42 -54 61 -3 8 -7 9 -11 3 -3 -6 0 -22 7 -36 13 -24 12 -27 -15 -47 -32
-24 -38 -13 -18 33 9 20 9 28 -4 41 -14 14 -14 19 -1 50 12 30 12 35 0 35 -8
0 -17 7 -20 16 -5 12 -2 15 11 9 10 -4 30 -8 46 -9z m-233 -80 c0 -11 -19 -15
-25 -6 -3 5 1 10 9 10 9 0 16 -2 16 -4z m-122 -24 c8 -6 1 -12 -23 -19 -37
-12 -48 -1 -17 16 21 13 24 13 40 3z m52 -2 c0 -5 -2 -10 -4 -10 -3 0 -8 5
-11 10 -3 6 -1 10 4 10 6 0 11 -4 11 -10z m1005 -19 c3 -5 1 -12 -5 -16 -5 -3
-10 1 -10 9 0 18 6 21 15 7z m-1130 -11 c-3 -5 -21 -9 -38 -9 l-32 2 35 7 c19
4 36 8 38 9 2 0 0 -3 -3 -9z m2245 -3 c0 -4 6 -14 13 -22 8 -8 12 -25 10 -39
-6 -29 -4 -30 31 -17 29 12 76 -6 76 -29 0 -8 -9 -21 -20 -28 -22 -14 -17 -37
6 -28 8 3 14 2 14 -3 0 -14 -51 -32 -72 -25 -14 4 -18 2 -14 -5 4 -6 0 -11 -8
-11 -9 0 -16 7 -16 15 0 8 -9 15 -21 15 -11 0 -17 -4 -14 -10 4 -6 -6 -10 -22
-10 -20 0 -31 7 -38 23 -6 12 -17 20 -25 18 -8 -3 -29 -4 -47 -3 -18 1 -35 -3
-38 -8 -9 -15 -35 -12 -29 4 3 7 -9 25 -25 39 -17 14 -31 30 -31 36 0 14 43
26 48 13 2 -6 12 -21 22 -34 15 -20 25 -23 64 -20 29 3 46 9 46 17 0 16 -31
29 -39 17 -11 -16 -39 -21 -45 -7 -3 9 0 12 8 9 7 -3 19 2 26 11 11 13 9 15
-9 15 -12 0 -21 6 -21 15 0 18 9 22 64 30 22 3 51 12 65 19 27 14 43 16 41 3z
m-2370 -7 c0 -5 10 -10 23 -10 18 -1 16 -3 -12 -16 -40 -17 -42 -16 -34 14 5
22 23 31 23 12z m-60 -15 c0 -8 5 -15 12 -15 6 0 3 -7 -8 -15 -10 -8 -29 -15
-40 -15 -18 0 -20 5 -16 27 4 23 6 24 17 10 17 -23 28 -21 20 3 -4 11 -2 20 4
20 6 0 11 -7 11 -15z m2475 5 c3 -5 1 -10 -4 -10 -6 0 -11 5 -11 10 0 6 2 10
4 10 3 0 8 -4 11 -10z m-1815 -7 c0 -3 -7 -14 -15 -24 -14 -15 -14 -18 0 -33
17 -16 12 -56 -6 -56 -5 0 -13 -10 -18 -22 -6 -17 -4 -25 8 -30 13 -5 12 -7
-5 -7 -31 -1 -34 6 -17 55 11 32 20 44 30 40 9 -4 7 5 -8 25 -22 31 -22 32 -4
45 20 15 35 18 35 7z m2430 -3 c0 -5 -7 -10 -16 -10 -12 0 -15 -7 -12 -28 3
-21 0 -28 -14 -29 -21 -2 -49 33 -41 53 7 19 83 32 83 14z m-480 -30 c0 -5 -5
-10 -11 -10 -5 0 -7 5 -4 10 3 6 8 10 11 10 2 0 4 -4 4 -10z m60 -9 c0 -6 -4
-13 -10 -16 -5 -3 -10 1 -10 9 0 9 5 16 10 16 6 0 10 -4 10 -9z m50 -1 c0 -5
-4 -10 -10 -10 -5 0 -10 5 -10 10 0 6 5 10 10 10 6 0 10 -4 10 -10z m-1623 -6
c-3 -3 -12 -4 -19 -1 -8 3 -5 6 6 6 11 1 17 -2 13 -5z m-77 -24 c0 -5 -2 -10
-4 -10 -3 0 -8 5 -11 10 -3 6 -1 10 4 10 6 0 11 -4 11 -10z m1675 0 c3 -5 1
-10 -4 -10 -6 0 -11 5 -11 10 0 6 2 10 4 10 3 0 8 -4 11 -10z m95 0 c0 -13
-11 -13 -30 0 -12 8 -11 10 8 10 12 0 22 -4 22 -10z m-138 -18 c3 8 7 6 11 -5
5 -13 1 -17 -18 -17 -16 0 -25 6 -25 16 0 13 3 14 14 5 11 -9 15 -9 18 1z
m198 -1 c0 -12 -29 -23 -41 -15 -5 3 -7 10 -4 15 8 12 45 12 45 0z m-3210 -32
c0 -11 -27 -12 -34 0 -3 4 -3 11 0 14 8 8 34 -3 34 -14z m3150 5 c0 -8 -5 -12
-10 -9 -6 4 -8 11 -5 16 9 14 15 11 15 -7z m-776 -11 c-5 -17 -5 -17 6 0 15
23 30 22 30 -4 0 -14 5 -19 14 -16 10 4 12 0 9 -14 -3 -11 1 -21 11 -25 11 -4
14 -13 10 -30 -5 -19 -3 -23 10 -18 9 3 13 11 10 18 -4 6 4 1 17 -12 13 -13
39 -32 57 -43 30 -18 46 -59 22 -59 -5 0 -10 5 -10 10 0 6 -5 10 -11 10 -5 0
-8 -4 -5 -9 8 -13 -91 11 -136 33 -21 10 -38 20 -38 22 0 11 38 40 48 36 7 -2
12 6 12 17 0 17 -6 21 -33 21 -24 0 -40 8 -60 31 -31 36 -32 39 -11 39 8 0 12
-4 9 -10 -3 -5 1 -10 9 -10 9 0 16 7 16 15 0 8 4 15 10 15 5 0 7 -8 4 -17z
m-2424 -3 c0 -5 -5 -10 -11 -10 -5 0 -7 5 -4 10 3 6 8 10 11 10 2 0 4 -4 4
-10z m1277 4 c-3 -3 -12 -4 -19 -1 -8 3 -5 6 6 6 11 1 17 -2 13 -5z m-1347
-38 c-32 -17 -49 -20 -58 -13 -18 15 -3 25 43 30 22 2 45 4 50 5 6 1 -10 -9
-35 -22z m2600 4 c0 -5 -7 -7 -15 -4 -8 4 -12 10 -9 15 6 11 24 2 24 -11z
m-9356 -17 c-10 -40 -14 -41 -14 -5 0 18 5 32 10 32 6 0 8 -11 4 -27z m4305
18 c8 -5 11 -16 6 -30 -3 -12 -10 -19 -15 -16 -4 3 -6 -4 -3 -15 7 -28 -20
-17 -37 15 -20 38 12 69 49 46z m115 -16 c15 -8 37 -15 47 -15 24 0 24 -3 -6
-54 -26 -45 -71 -74 -88 -57 -5 5 3 12 22 16 44 9 39 22 -6 17 -21 -3 -46 -13
-56 -23 -10 -11 -22 -19 -28 -19 -14 0 -1 66 23 113 21 41 44 47 92 22z m5107
-16 c10 -6 6 -9 -13 -9 -22 0 -25 4 -21 21 4 14 8 17 13 9 4 -7 14 -16 21 -21z
m-437 -25 c20 -20 35 -38 33 -41 -3 -2 -22 6 -43 18 -22 12 -56 22 -77 22 -45
0 -37 15 15 27 18 4 33 8 34 9 0 1 18 -15 38 -35z m499 29 c4 -3 -5 -16 -18
-29 -22 -20 -24 -26 -13 -43 10 -16 10 -23 0 -33 -6 -6 -12 -30 -13 -52 l-1
-41 -9 38 c-11 46 -37 87 -55 87 -8 0 -14 7 -14 16 0 12 6 15 25 10 27 -7 71
26 60 44 -7 11 28 14 38 3z m42 -13 c-3 -5 -10 -10 -16 -10 -5 0 -9 5 -9 10 0
6 7 10 16 10 8 0 12 -4 9 -10z m-478 -26 c-3 -3 -12 -4 -19 -1 -8 3 -5 6 6 6
11 1 17 -2 13 -5z m60 0 c-3 -3 -12 -4 -19 -1 -8 3 -5 6 6 6 11 1 17 -2 13 -5z
m458 -16 c6 -4 2 -8 -7 -8 -10 0 -18 7 -18 17 0 9 3 12 8 7 4 -5 12 -12 17
-16z m-6745 3 c0 -6 -4 -13 -10 -16 -5 -3 -10 1 -10 9 0 9 5 16 10 16 6 0 10
-4 10 -9z m1602 -6 c4 -5 20 -10 35 -11 40 -1 70 -20 88 -53 14 -27 13 -29 -8
-36 -43 -14 -98 -14 -103 0 -3 7 -17 16 -32 20 -53 13 -64 36 -35 72 17 21 43
25 55 8z m4693 -43 c-9 -10 -55 21 -55 37 0 17 3 16 29 -8 16 -14 28 -27 26
-29z m-388 22 c-3 -3 -12 -4 -19 -1 -8 3 -5 6 6 6 11 1 17 -2 13 -5z m-5923
-47 c7 -6 6 -7 -4 -4 -8 2 -16 12 -17 23 -2 13 -1 15 4 4 3 -8 11 -19 17 -23z
m5810 -1 c-3 -9 -12 -16 -20 -16 -20 0 -17 28 4 32 22 5 24 4 16 -16z m373 18
c-3 -3 -12 -4 -19 -1 -8 3 -5 6 6 6 11 1 17 -2 13 -5z m-6419 -58 c3 -13 -1
-17 -14 -14 -11 2 -20 11 -22 22 -3 13 1 17 14 14 11 -2 20 -11 22 -22z m219
-18 c-3 -7 -5 -2 -5 12 0 14 2 19 5 13 2 -7 2 -19 0 -25z m-2957 -8 c0 -18 -3
-19 -20 -10 -11 6 -20 15 -20 20 0 6 9 10 20 10 13 0 20 -7 20 -20z m-142 -2
c-35 -12 -35 -23 -2 -44 17 -12 24 -24 21 -36 -3 -10 1 -25 9 -33 15 -15 15
-36 -1 -47 -6 -4 -1 -8 10 -8 18 -1 18 -2 -2 -10 -13 -6 -23 -18 -23 -30 0
-11 -5 -20 -11 -20 -8 0 -8 -4 0 -14 8 -10 8 -16 -2 -25 -11 -8 -18 -6 -33 11
-10 12 -13 18 -6 14 6 -4 12 -2 12 3 0 6 -4 11 -9 11 -5 0 -12 10 -14 23 -2
12 -5 -4 -6 -35 -1 -40 3 -58 12 -58 8 0 8 -3 -2 -9 -10 -7 -12 -21 -8 -55 l7
-46 -35 3 c-33 2 -35 4 -35 40 0 20 -4 37 -10 37 -5 0 -10 9 -10 20 0 30 -33
25 -58 -10 -12 -16 -22 -34 -22 -40 0 -5 -13 -10 -30 -10 -39 0 -39 19 0 27
41 8 38 24 -13 60 l-43 31 3 84 c1 45 2 86 3 91 0 4 14 7 30 7 19 0 30 5 30
14 0 9 16 16 45 20 24 4 47 11 50 17 4 5 27 9 53 10 26 0 56 4 67 9 11 5 27 9
35 9 8 -1 3 -5 -12 -11z m102 -29 c0 -18 -5 -29 -13 -29 -9 0 -14 12 -14 34 0
24 4 33 14 29 7 -3 13 -18 13 -34z m9780 19 c0 -13 -4 -29 -9 -37 -13 -20 -24
4 -17 35 8 30 26 32 26 2z m-910 -44 c0 -2 -4 -4 -10 -4 -5 0 -10 7 -10 15 0
8 -4 15 -10 15 -5 0 -10 -4 -10 -9 0 -5 -12 -8 -27 -8 l-28 0 25 11 c14 6 29
17 33 24 7 11 12 7 23 -13 8 -15 14 -29 14 -31z m-8790 26 c0 -5 -4 -10 -10
-10 -5 0 -10 5 -10 10 0 6 5 10 10 10 6 0 10 -4 10 -10z m8365 -30 c-3 -5 2
-10 12 -10 10 0 25 -5 33 -11 12 -8 11 -9 -6 -4 -13 3 -26 0 -33 -9 -7 -8 -18
-13 -25 -10 -8 3 -17 -5 -21 -18 -5 -17 -8 -19 -11 -7 -3 8 -14 22 -25 29 -18
14 -17 16 28 32 27 9 49 17 51 17 2 1 0 -3 -3 -9z m-8465 -41 c0 -5 -9 -9 -20
-9 -19 0 -27 20 -13 33 7 8 33 -11 33 -24z m7145 1 c-11 -5 -27 -9 -35 -9 -9
0 -8 4 5 9 11 5 27 9 35 9 9 0 8 -4 -5 -9z m1495 -6 c0 -8 -4 -12 -10 -9 -5 3
-10 10 -10 16 0 5 5 9 10 9 6 0 10 -7 10 -16z m208 0 c18 -8 32 -20 32 -25 0
-5 -2 -9 -3 -9 -10 0 -67 32 -72 41 -9 13 8 11 43 -7z m-464 -10 c9 -24 7 -28
-9 -14 -17 14 -20 30 -6 30 5 0 12 -7 15 -16z m1716 -9 c17 -21 3 -75 -20 -75
-10 0 -20 8 -23 18 -3 13 -7 11 -16 -12 -6 -16 -14 -26 -18 -23 -15 16 -94
-49 -86 -71 5 -11 1 -14 -14 -10 -12 3 -24 -1 -31 -12 -6 -10 -26 -21 -44 -25
-18 -4 -46 -16 -61 -27 -21 -15 -31 -18 -40 -9 -14 14 -27 14 -27 0 0 -27 -46
-40 -116 -30 -15 2 -11 51 7 78 15 25 109 59 135 49 11 -4 26 4 46 24 18 20
35 29 46 26 19 -6 82 28 82 44 0 5 9 10 19 10 10 0 21 7 25 15 3 8 14 15 24
15 10 0 22 4 28 9 5 5 20 11 34 14 14 2 28 5 31 6 4 0 12 -6 19 -14z m440 5
c0 -5 -4 -10 -10 -10 -5 0 -10 5 -10 10 0 6 5 10 10 10 6 0 10 -4 10 -10z
m-2190 -10 c0 -5 -2 -10 -4 -10 -3 0 -8 5 -11 10 -3 6 -1 10 4 10 6 0 11 -4
11 -10z m170 -10 c0 -5 -5 -10 -11 -10 -5 0 -7 5 -4 10 3 6 8 10 11 10 2 0 4
-4 4 -10z m8 -30 c28 -17 32 -23 22 -35 -17 -20 -32 -19 -53 5 -17 21 -23 50
-9 50 4 0 22 -9 40 -20z m-3484 4 c20 -8 21 -24 2 -24 -8 0 -16 7 -20 15 -6
17 -4 18 18 9z m5218 -26 c-6 -6 -15 -8 -19 -4 -4 4 -1 11 7 16 19 12 27 3 12
-12z m-1942 -29 c0 -6 -4 -7 -10 -4 -5 3 -10 11 -10 16 0 6 5 7 10 4 6 -3 10
-11 10 -16z m-5583 -21 c-3 -8 -6 -5 -6 6 -1 11 2 17 5 13 3 -3 4 -12 1 -19z
m6219 7 c18 -15 17 -16 -13 -10 -32 6 -48 -8 -20 -18 6 -2 8 -8 4 -13 -5 -5
-14 -2 -20 7 -7 9 -30 21 -52 27 l-40 11 47 -2 c26 0 50 2 54 6 11 10 18 9 40
-8z m-6312 -32 c-9 -38 -15 -46 -25 -36 -10 10 11 63 24 63 4 0 4 -12 1 -27z
m-2674 7 c0 -5 -2 -10 -4 -10 -3 0 -8 5 -11 10 -3 6 -1 10 4 10 6 0 11 -4 11
-10z m10170 0 c0 -5 -4 -10 -10 -10 -5 0 -10 5 -10 10 0 6 5 10 10 10 6 0 10
-4 10 -10z m-590 -76 c0 -8 -4 -14 -9 -14 -11 0 -22 26 -14 34 9 9 23 -3 23
-20z m-9530 -20 c0 -2 -7 -4 -15 -4 -8 0 -15 4 -15 10 0 5 7 7 15 4 8 -4 15
-8 15 -10z m3511 -36 c-7 -18 -16 -23 -42 -23 -29 0 -34 -4 -37 -25 -2 -19 -1
-22 7 -10 5 8 13 12 16 8 4 -3 -2 -15 -14 -27 -16 -16 -26 -18 -50 -11 -19 5
-33 5 -37 -1 -3 -6 -11 -8 -17 -6 -7 2 -25 -2 -40 -10 -16 -8 -35 -12 -43 -9
-8 3 -14 -1 -14 -9 0 -8 7 -16 15 -16 28 -3 33 -4 41 -11 4 -4 2 -14 -4 -21
-7 -8 -10 -16 -7 -19 3 -3 -14 -11 -37 -19 -24 -7 -49 -19 -55 -25 -12 -12
-86 -10 -106 3 -13 8 14 33 36 33 29 0 15 11 -23 16 -21 4 -30 2 -25 -5 4 -7
-6 -11 -27 -11 -18 0 -44 -9 -58 -20 l-25 -20 25 0 c23 -1 23 -2 5 -10 -19 -8
-19 -9 -1 -9 31 -1 -52 -69 -94 -76 -19 -4 -51 -14 -70 -23 -19 -8 -63 -16
-97 -16 -55 -1 -62 -3 -57 -18 4 -13 0 -18 -16 -18 -12 0 -19 -4 -15 -9 8 -15
-15 -25 -28 -12 -8 8 -8 11 2 11 7 0 9 5 6 10 -8 13 -65 13 -85 0 -12 -8 -12
-10 -1 -10 8 0 12 -2 10 -5 -3 -2 -18 -1 -35 4 l-29 8 50 22 c28 13 44 25 38
28 -7 3 -13 19 -13 36 -1 31 -1 31 -16 12 -12 -17 -27 -20 -84 -20 -65 0 -68
1 -53 18 16 17 10 22 -22 18 -5 -1 -1 6 9 14 11 8 16 15 12 15 -5 0 -3 7 4 15
7 9 19 14 25 11 7 -2 18 1 24 7 8 8 11 7 11 -6 0 -9 5 -17 11 -17 5 0 7 5 4
10 -4 6 8 10 29 10 19 0 45 4 58 9 13 5 50 15 83 22 33 7 82 21 110 31 27 10
64 18 82 18 18 0 56 6 85 14 104 29 235 66 398 115 198 58 192 57 181 29z
m4999 4 c0 -4 -9 -8 -20 -8 -11 0 -20 4 -20 8 0 4 9 8 20 8 11 0 20 -4 20 -8z
m-8806 -23 c-8 -14 -24 -10 -24 6 0 9 6 12 15 9 8 -4 12 -10 9 -15z m6503 15
c-3 -3 -12 -4 -19 -1 -8 3 -5 6 6 6 11 1 17 -2 13 -5z m-6787 -30 c0 -7 -5
-16 -11 -20 -13 -8 -34 11 -26 23 9 14 37 12 37 -3z m9060 1 c0 -9 -6 -12 -15
-9 -8 4 -12 10 -9 15 8 14 24 10 24 -6z m1290 -7 c0 -13 -32 -6 -37 9 -3 7 3
9 16 6 12 -3 21 -10 21 -15z m-3657 5 c-7 -2 -19 -2 -25 0 -7 3 -2 5 12 5 14
0 19 -2 13 -5z m2492 -3 c3 -5 -1 -10 -10 -10 -9 0 -13 5 -10 10 3 6 8 10 10
10 2 0 7 -4 10 -10z m-2535 -4 c0 -2 -7 -7 -16 -10 -8 -3 -12 -2 -9 4 6 10 25
14 25 6z m2484 -5 c3 -4 -6 -6 -19 -3 -14 2 -25 6 -25 8 0 8 39 4 44 -5z
m-8877 -27 c-3 -3 -12 -4 -19 -1 -8 3 -5 6 6 6 11 1 17 -2 13 -5z m2806 -35
c-5 -18 -6 -19 -18 -2 -10 13 -10 22 -3 31 14 17 28 -2 21 -29z m-74 -46 c1
-13 -3 -23 -9 -23 -5 0 -10 19 -9 43 0 32 2 37 9 22 5 -11 9 -30 9 -42z m41
32 c0 -28 -15 -34 -24 -9 -10 25 -7 34 9 34 9 0 15 -9 15 -25z m-2583 -17 c-3
-8 -6 -5 -6 6 -1 11 2 17 5 13 3 -3 4 -12 1 -19z m-187 -3 c0 -8 -4 -15 -10
-15 -5 0 -10 7 -10 15 0 8 5 15 10 15 6 0 10 -7 10 -15z m3760 -15 c0 -5 -4
-10 -10 -10 -5 0 -10 5 -10 10 0 6 5 10 10 10 6 0 10 -4 10 -10z m5741 -10
c10 -6 19 -17 19 -25 0 -8 7 -15 15 -15 22 0 18 -18 -5 -25 -13 -4 -34 2 -55
15 -34 21 -38 40 -9 40 8 0 12 5 9 10 -8 13 1 13 26 0z m-4921 -7 c0 -6 -69
-32 -103 -38 -27 -4 -37 -3 -32 4 3 6 17 11 30 11 12 0 25 6 28 14 4 9 19 14
41 13 20 -1 36 -2 36 -4z m5590 -3 c12 -8 11 -10 -7 -10 -13 0 -23 5 -23 10 0
13 11 13 30 0z m-7286 -15 c-7 -16 -24 -21 -24 -6 0 8 7 13 27 20 1 1 0 -6 -3
-14z m3081 5 c-3 -5 -14 -10 -23 -9 -14 0 -13 2 3 9 27 11 27 11 20 0z m-3370
-10 c3 -5 1 -10 -4 -10 -6 0 -11 5 -11 10 0 6 2 10 4 10 3 0 8 -4 11 -10z
m342 4 c-3 -3 -12 -4 -19 -1 -8 3 -5 6 6 6 11 1 17 -2 13 -5z m-316 -45 c3
-65 1 -69 -28 -68 -23 1 -25 2 -8 7 11 4 20 13 21 20 1 6 2 29 3 49 1 45 11
39 12 -8z m199 31 c0 -5 -5 -10 -11 -10 -5 0 -7 5 -4 10 3 6 8 10 11 10 2 0 4
-4 4 -10z m910 0 c-13 -9 -13 -10 0 -10 13 -1 13 -2 0 -9 -26 -15 -98 -22
-105 -10 -4 6 -13 8 -21 5 -8 -3 -14 -1 -14 4 0 6 17 8 43 4 32 -4 38 -3 27 5
-12 9 -9 10 11 5 15 -3 30 -1 33 5 4 6 15 11 24 11 15 0 15 -2 2 -10z m2131
-16 c-36 -13 -69 -23 -75 -21 -12 4 100 45 124 46 8 0 -14 -11 -49 -25z m3434
16 c3 -5 0 -10 -7 -10 -8 -1 -6 -6 6 -15 11 -8 17 -17 14 -20 -10 -10 -51 31
-44 43 9 15 23 15 31 2z m-4700 -10 c3 -5 1 -10 -4 -10 -6 0 -11 5 -11 10 0 6
2 10 4 10 3 0 8 -4 11 -10z m-194 -15 c-18 -8 -36 -15 -40 -15 -13 1 45 29 59
29 8 0 0 -6 -19 -14z m5081 -17 c-12 -12 -35 -1 -27 12 3 5 13 6 21 3 10 -4
12 -9 6 -15z m-5152 -8 c-8 -5 -24 -9 -35 -9 -16 1 -16 2 5 9 35 11 48 11 30
0z m250 1 c0 -5 -9 -7 -20 -4 -11 3 -20 7 -20 9 0 2 9 4 20 4 11 0 20 -4 20
-9z m1187 3 c-3 -3 -12 -4 -19 -1 -8 3 -5 6 6 6 11 1 17 -2 13 -5z m5103 -4
c0 -5 -7 -10 -16 -10 -8 0 -12 5 -9 10 3 6 10 10 16 10 5 0 9 -4 9 -10z
m-7473 -6 c-3 -3 -12 -4 -19 -1 -8 3 -5 6 6 6 11 1 17 -2 13 -5z m2323 -4 c-8
-5 -19 -10 -25 -10 -5 0 -3 5 5 10 8 5 20 10 25 10 6 0 3 -5 -5 -10z m-1455
-8 c-6 -5 -35 -14 -65 -22 -30 -7 -64 -19 -75 -25 -11 -7 -45 -18 -75 -25 -30
-6 -89 -23 -130 -37 -41 -14 -106 -33 -145 -43 -38 -10 -122 -34 -185 -53
-105 -32 -171 -50 -177 -48 -2 0 -38 -12 -80 -28 -94 -34 -158 -47 -168 -32
-10 17 -28 13 -21 -5 4 -11 -4 -19 -29 -30 -39 -16 -69 -19 -42 -3 9 5 17 19
17 31 0 14 5 18 15 15 8 -4 17 -1 21 4 3 6 15 9 25 6 11 -3 19 -1 19 4 0 5 5
9 10 9 6 0 10 -7 10 -15 0 -22 14 -18 25 7 6 13 24 26 45 31 19 5 41 13 47 19
7 6 24 7 39 4 17 -5 24 -3 19 4 -5 8 4 9 29 5 29 -6 36 -4 36 9 0 13 4 15 19
6 26 -13 31 -13 31 4 0 19 31 28 67 21 20 -4 23 -3 9 3 -23 10 -14 17 34 27
19 3 44 9 55 11 16 4 17 3 5 -5 -13 -9 -13 -11 3 -11 9 0 17 7 17 15 0 11 5
12 26 5 22 -9 27 -7 31 10 5 19 35 32 106 44 20 4 27 1 28 -12 0 -12 3 -10 10
6 5 13 13 20 19 17 5 -3 10 -2 10 3 0 12 78 32 124 32 19 0 38 5 41 10 3 6 18
7 31 4 14 -4 35 -2 47 4 45 23 142 42 122 24z m4583 -8 c12 -4 22 -10 22 -15
0 -15 -47 -10 -60 6 -14 17 -3 20 38 9z m-5373 -34 c3 -5 -3 -10 -15 -10 -12
0 -18 5 -15 10 3 6 10 10 15 10 5 0 12 -4 15 -10z m-910 -9 c8 -14 -13 -24
-33 -16 -14 5 -14 7 -2 15 19 12 27 12 35 1z m-61 -22 c-3 -5 -9 -7 -14 -4 -4
3 -10 -1 -13 -7 -2 -8 -8 -9 -13 -4 -5 5 -4 11 4 13 6 3 10 8 7 13 -3 4 4 6
15 3 11 -3 17 -9 14 -14z m230 -38 c3 -5 -1 -14 -9 -21 -12 -10 -15 -9 -15 4
0 18 -8 20 -29 7 -7 -5 -11 -13 -8 -19 7 -10 -90 -25 -104 -16 -16 10 -9 24
17 36 21 10 27 9 34 -3 8 -12 13 -12 37 3 31 18 69 23 77 9z m6805 -41 c0 -8
-3 -10 -5 -4 -3 7 -21 10 -49 6 -37 -4 -45 -2 -45 12 0 9 -7 16 -16 16 -8 0
-13 4 -10 9 10 15 126 -21 125 -39z m116 40 c7 -12 -12 -12 -40 0 -18 8 -17 9
7 9 15 1 30 -3 33 -9z m-295 -10 c0 -5 -4 -10 -10 -10 -5 0 -10 5 -10 10 0 6
5 10 10 10 6 0 10 -4 10 -10z m-3783 -6 c-3 -3 -12 -4 -19 -1 -8 3 -5 6 6 6
11 1 17 -2 13 -5z m-2783 -20 c25 -10 19 -20 -11 -18 -16 1 -37 3 -48 4 l-20
1 20 9 c25 11 39 12 59 4z m6968 -15 c15 0 30 -4 33 -9 4 -6 15 -10 25 -10 25
0 34 -16 21 -37 -7 -13 -5 -25 6 -44 15 -25 15 -29 0 -44 -12 -11 -22 -13 -33
-7 -15 9 -15 10 4 16 12 4 22 12 22 18 0 7 -4 7 -13 0 -7 -6 -32 -14 -55 -17
l-42 -5 16 25 c16 24 15 27 -1 45 -10 11 -26 20 -36 20 -10 0 -21 5 -24 10 -9
15 -38 12 -29 -2 6 -10 4 -10 -7 0 -7 6 -21 12 -31 12 -21 0 -24 16 -5 24 6 3
2 3 -10 0 -15 -3 -23 -1 -23 7 0 9 19 10 78 4 42 -4 89 -7 104 -6z m-6835 -5
c-3 -3 -12 -4 -19 -1 -8 3 -5 6 6 6 11 1 17 -2 13 -5z m2228 -4 c-27 -12 -43
-12 -25 0 8 5 22 9 30 9 10 0 8 -3 -5 -9z m4390 -10 c3 -5 15 -10 26 -10 10 0
19 -5 19 -11 0 -5 5 -7 12 -3 6 4 8 3 5 -3 -4 -6 0 -16 8 -23 8 -7 12 -16 9
-22 -3 -5 -12 -4 -20 3 -8 6 -17 9 -21 6 -3 -3 -19 1 -35 9 -17 9 -50 16 -74
17 -25 1 -44 7 -44 13 0 18 31 26 47 13 11 -10 18 -9 31 4 19 19 28 21 37 7z
m-6910 -7 c-11 -3 -26 -10 -32 -15 -7 -6 -21 -7 -30 -3 -16 7 -15 9 7 15 14 5
36 8 50 8 20 0 21 -1 5 -5z m4752 1 c-3 -3 -12 -4 -19 -1 -8 3 -5 6 6 6 11 1
17 -2 13 -5z m1930 -10 c8 -21 -8 -34 -35 -28 -26 7 -29 31 -4 37 30 8 32 7
39 -9z m77 -10 c8 -30 3 -39 -17 -31 -10 3 -13 15 -10 31 7 33 19 33 27 0z
m-6657 10 c-3 -3 -12 -4 -19 -1 -8 3 -5 6 6 6 11 1 17 -2 13 -5z m153 2 c0 -3
-4 -8 -10 -11 -5 -3 -10 -1 -10 4 0 6 5 11 10 11 6 0 10 -2 10 -4z m450 -5 c0
-5 -26 -17 -57 -26 -111 -32 -173 -45 -173 -34 0 14 33 27 80 32 25 3 63 12
85 21 48 17 65 19 65 7z m7333 2 c-7 -2 -19 -2 -25 0 -7 3 -2 5 12 5 14 0 19
-2 13 -5z m-8170 -38 c1 -5 -5 -11 -14 -13 -9 -2 -16 4 -16 13 0 17 27 17 30
0z m102 -4 c-3 -6 -16 -11 -28 -11 -21 0 -21 1 3 13 27 15 36 14 25 -2z m5415
9 c0 -5 -5 -10 -11 -10 -5 0 -7 5 -4 10 3 6 8 10 11 10 2 0 4 -4 4 -10z m1510
-41 c0 -5 -7 -9 -15 -9 -15 0 -20 12 -9 23 8 8 24 -1 24 -14z m-6936 -10 c12
-11 8 -15 -31 -22 -30 -6 -33 -4 -33 19 0 23 3 25 28 19 15 -3 31 -11 36 -16z
m330 6 c3 -8 3 -21 0 -29 -9 -22 -70 -47 -117 -48 -23 0 -52 -6 -64 -14 -13
-8 -23 -11 -23 -7 0 5 12 16 28 25 54 34 67 43 72 49 5 5 79 36 91 38 4 1 9
-6 13 -14z m81 -25 c-3 -5 -14 -10 -23 -10 -15 0 -15 2 -2 10 20 13 33 13 25
0z m6565 -20 c0 -5 -7 -7 -15 -4 -8 4 -12 10 -9 15 6 11 24 2 24 -11z m-450
-8 c0 -10 5 -23 12 -30 22 -22 -5 -13 -29 10 -28 26 -29 38 -3 38 13 0 20 -7
20 -18z m-6495 -11 c3 -5 1 -12 -4 -15 -12 -8 -41 3 -41 15 0 12 37 12 45 0z
m395 -1 c0 -5 -7 -10 -16 -10 -8 0 -12 5 -9 10 3 6 10 10 16 10 5 0 9 -4 9
-10z m5305 0 c3 -5 -1 -10 -9 -10 -8 0 -18 5 -21 10 -3 6 1 10 9 10 8 0 18 -4
21 -10z m-5342 -28 c10 -2 25 2 33 9 10 8 18 9 25 2 7 -7 -13 -17 -63 -31 -40
-11 -138 -41 -217 -66 -80 -25 -152 -46 -160 -46 -9 -1 -34 -8 -56 -16 -22 -8
-56 -17 -76 -19 l-37 -4 28 28 c42 42 70 56 130 69 101 20 140 24 140 14 0 -6
-3 -12 -7 -15 -12 -6 7 -1 70 19 55 17 82 41 32 28 -47 -12 -25 4 28 20 59 18
100 24 107 16 3 -3 13 -6 23 -8z m-353 -37 c0 -9 -14 -16 -37 -20 -21 -3 -46
-8 -55 -10 -10 -2 -21 1 -24 6 -3 5 2 9 10 9 9 0 15 3 15 8 -3 15 2 18 46 20
33 1 45 -2 45 -13z m4190 -18 c0 -8 -13 -25 -28 -40 -27 -26 -29 -27 -45 -9
-15 17 -15 20 0 43 9 13 21 27 27 31 13 9 46 -9 46 -25z m-4125 13 c-3 -5 -10
-10 -16 -10 -5 0 -9 5 -9 10 0 6 7 10 16 10 8 0 12 -4 9 -10z m6890 0 c3 -5
-1 -10 -10 -10 -9 0 -13 5 -10 10 3 6 8 10 10 10 2 0 7 -4 10 -10z m497 -35
c-3 -12 -43 -7 -57 7 -7 6 2 8 25 6 19 -2 34 -7 32 -13z m-715 -1 c-3 -3 -12
-4 -19 -1 -8 3 -5 6 6 6 11 1 17 -2 13 -5z m-5217 -38 c0 -3 -24 -12 -52 -22
-29 -9 -60 -19 -68 -22 -8 -3 -12 -2 -8 3 4 4 31 16 60 26 57 19 68 21 68 15z
m-3245 -26 c-3 -5 -11 -10 -16 -10 -6 0 -7 5 -4 10 3 6 11 10 16 10 6 0 7 -4
4 -10z m8990 -21 c-4 -5 2 -9 11 -9 16 0 16 -1 -2 -15 -19 -15 -19 -15 0 -30
11 -8 18 -15 15 -16 -27 -5 -129 -2 -129 4 0 4 6 7 13 7 6 1 28 8 47 18 28 13
34 22 32 41 -2 15 0 21 7 16 6 -3 9 -11 6 -16z m-7479 -12 c3 -3 -14 -11 -37
-17 -247 -63 -411 -110 -544 -155 -87 -29 -119 -35 -127 -22 -6 9 -8 9 -8 0 0
-7 -17 -15 -37 -19 -21 -4 -42 -10 -48 -14 -14 -11 -119 -40 -144 -40 -12 0
-21 -5 -21 -11 0 -5 -5 -7 -10 -4 -6 4 -16 3 -23 -3 -11 -8 -124 -42 -142 -42
-4 0 0 9 10 20 10 11 13 20 7 20 -7 0 -12 5 -12 12 0 6 8 4 20 -7 25 -23 68
-13 96 23 20 24 23 25 40 12 15 -12 16 -12 9 -1 -6 11 -4 13 8 8 10 -3 17 -2
17 2 0 5 21 7 47 5 41 -4 45 -3 33 11 -19 23 2 35 61 35 25 0 49 4 55 9 5 5
26 14 47 21 20 6 37 16 37 21 0 6 9 8 19 4 11 -3 22 -1 26 5 3 5 21 10 39 10
18 0 41 7 52 15 10 8 35 15 54 15 20 0 40 4 45 8 6 5 37 15 70 22 113 24 167
40 179 49 18 15 169 22 182 8z m1591 7 c-3 -3 -12 -4 -19 -1 -8 3 -5 6 6 6 11
1 17 -2 13 -5z m6843 -38 c0 -3 -4 -8 -10 -11 -5 -3 -10 -1 -10 4 0 6 5 11 10
11 6 0 10 -2 10 -4z m-1517 -13 c-7 -2 -19 -2 -25 0 -7 3 -2 5 12 5 14 0 19
-2 13 -5z m-6603 -37 c0 -3 -4 -8 -10 -11 -5 -3 -10 -1 -10 4 0 6 5 11 10 11
6 0 10 -2 10 -4z m5745 -6 c3 -6 -1 -7 -9 -4 -18 7 -21 14 -7 14 6 0 13 -4 16
-10z m1419 -1 c-6 -11 -54 -12 -54 -1 0 4 13 7 30 8 16 1 27 -3 24 -7z m-1087
-24 c-2 -5 -19 -9 -38 -8 -46 2 -46 2 -29 13 19 12 71 9 67 -5z m170 -41 c-3
-3 -12 -4 -19 -1 -8 3 -5 6 6 6 11 1 17 -2 13 -5z m-247 -38 c0 -3 -4 -8 -10
-11 -5 -3 -10 -1 -10 4 0 6 5 11 10 11 6 0 10 -2 10 -4z m120 -91 c0 -8 -4
-15 -10 -15 -5 0 -10 7 -10 15 0 8 5 15 10 15 6 0 10 -7 10 -15z m-7602 -43
c6 -18 -15 -14 -22 4 -4 10 -1 14 6 12 6 -2 14 -10 16 -16z m-31 -8 c6 -19
-132 -62 -162 -50 -8 3 -15 2 -15 -2 0 -9 -81 -37 -145 -51 -22 -5 -48 -12
-57 -16 -11 -4 -18 -3 -18 4 0 6 6 11 13 11 7 0 37 7 67 16 39 11 49 18 39 25
-9 5 0 7 24 4 21 -3 48 0 60 7 12 6 33 13 46 14 31 4 39 13 21 25 -12 9 -11
10 4 5 10 -4 24 -2 30 3 26 21 87 24 93 5z m4316 -4 c-19 -22 -26 -21 -17 4 3
9 12 16 20 16 11 0 10 -4 -3 -20z m-2585 -22 c-6 -18 -28 -21 -28 -4 0 9 7 16
16 16 9 0 14 -5 12 -12z m2633 -18 c10 0 19 -4 19 -8 0 -13 -33 -10 -47 3 -7
7 -9 16 -5 19 4 4 8 2 10 -3 2 -6 12 -11 23 -11z m4659 10 c0 -5 -4 -10 -9
-10 -6 0 -13 5 -16 10 -3 6 1 10 9 10 9 0 16 -4 16 -10z m-1216 -32 c-6 -9
-66 -38 -79 -38 -4 0 0 7 7 15 7 8 18 21 25 29 13 16 57 10 47 -6z m-2219 1
c11 -17 0 -20 -21 -4 -17 13 -17 14 -2 15 9 0 20 -5 23 -11z m1705 -11 c40
-29 38 -38 -7 -31 -38 5 -67 28 -57 44 9 15 34 10 64 -13z m412 -23 c3 -14 1
-25 -3 -25 -5 0 -9 6 -9 14 0 8 -3 22 -7 32 -4 11 -3 15 4 11 6 -4 13 -18 15
-32z m485 0 c7 -21 2 -25 -25 -18 -12 3 -22 12 -22 19 0 19 39 18 47 -1z
m-394 -25 c-6 -21 -13 -23 -53 -10 -24 7 -24 7 10 18 49 14 49 14 43 -8z
m-8309 -15 c3 -8 1 -15 -3 -15 -5 0 -11 7 -15 15 -3 8 -1 15 3 15 5 0 11 -7
15 -15z m73 9 c-3 -3 -12 -4 -19 -1 -8 3 -5 6 6 6 11 1 17 -2 13 -5z m-109
-21 c-2 -14 -14 -18 -48 -19 -25 -1 -33 0 -18 3 14 2 32 11 38 19 17 19 32 18
28 -3z m8822 -3 c0 -5 -2 -10 -4 -10 -3 0 -8 5 -11 10 -3 6 -1 10 4 10 6 0 11
-4 11 -10z m75 -13 c13 -3 9 -5 -12 -6 -31 -1 -49 10 -36 23 3 3 11 2 17 -3 6
-5 20 -11 31 -14z m-9040 -37 c-8 -13 -35 -13 -35 0 0 6 9 10 21 10 11 0 17
-4 14 -10z m6215 0 c0 -5 -2 -10 -4 -10 -3 0 -8 5 -11 10 -3 6 -1 10 4 10 6 0
11 -4 11 -10z"/>
<path d="M10338 2144 c-18 -18 19 -58 48 -53 25 4 44 -3 44 -16 0 -8 5 -15 10
-15 6 0 10 4 10 10 0 13 -41 50 -50 45 -4 -3 -15 4 -25 15 -19 21 -28 24 -37
14z"/>
<path d="M10476 2085 c3 -6 14 -11 24 -10 32 2 33 12 2 17 -20 3 -28 0 -26 -7z"/>
<path d="M10225 1430 c-3 -5 1 -10 9 -10 9 0 16 5 16 10 0 6 -4 10 -9 10 -6 0
-13 -4 -16 -10z"/>
<path d="M3400 1088 c0 -21 27 -23 65 -6 36 16 31 23 -20 23 -36 0 -45 -3 -45
-17z"/>
<path d="M4235 1040 c3 -5 8 -10 11 -10 2 0 4 5 4 10 0 6 -5 10 -11 10 -5 0
-7 -4 -4 -10z"/>
<path d="M9848 913 c7 -3 16 -2 19 1 4 3 -2 6 -13 5 -11 0 -14 -3 -6 -6z"/>
<path d="M3206 731 c-4 -5 3 -7 14 -4 23 6 26 13 6 13 -8 0 -17 -4 -20 -9z"/>
<path d="M2855 630 c3 -5 12 -7 20 -3 21 7 19 13 -6 13 -11 0 -18 -4 -14 -10z"/>
<path d="M6278 8273 c-4 -22 39 -127 69 -168 34 -48 39 -20 8 48 -15 34 -35
79 -44 99 -18 41 -28 47 -33 21z"/>
<path d="M8047 8242 c-3 -4 3 -13 14 -20 10 -7 19 -8 19 -3 0 13 -28 33 -33
23z"/>
<path d="M8161 8234 c0 -11 3 -14 6 -6 3 7 2 16 -1 19 -3 4 -6 -2 -5 -13z"/>
<path d="M5885 8226 c-17 -12 -16 -14 16 -24 19 -6 51 -11 72 -10 20 0 55 -9
77 -20 37 -18 40 -18 40 -2 0 52 -153 94 -205 56z"/>
<path d="M8180 8183 c0 -12 5 -25 10 -28 13 -8 13 15 0 35 -8 12 -10 11 -10
-7z"/>
<path d="M1687 7851 c3 -14 14 -21 29 -21 28 0 32 15 7 24 -10 3 -23 9 -30 12
-7 3 -10 -2 -6 -15z"/>
<path d="M6453 7801 c4 -18 7 -38 7 -43 0 -5 5 -6 10 -3 16 10 12 51 -7 66
-15 13 -16 11 -10 -20z"/>
<path d="M5956 7773 c-8 -20 1 -30 35 -38 37 -9 44 9 13 34 -32 25 -40 26 -48
4z"/>
<path d="M5641 7605 c-19 -58 -21 -77 -15 -165 4 -56 11 -103 15 -106 5 -3 9
2 9 11 0 9 5 13 10 10 6 -3 10 0 10 7 0 10 3 9 9 -1 8 -12 12 -12 25 -2 8 7
15 16 14 19 -1 4 2 15 7 26 5 11 4 26 -3 37 -9 14 -9 20 0 25 7 5 4 10 -10 15
-28 10 -29 29 -2 29 11 0 20 6 20 14 0 8 5 16 12 18 9 3 8 16 -2 54 -8 27 -16
41 -18 32 -5 -25 -17 -22 -19 4 -2 19 -18 37 -34 38 -3 0 -15 -29 -28 -65z"/>
<path d="M4756 7634 c-8 -22 -7 -34 3 -34 5 0 11 11 13 25 6 28 -6 34 -16 9z"/>
<path d="M5755 7460 c3 -5 11 -10 16 -10 6 0 7 5 4 10 -3 6 -11 10 -16 10 -6
0 -7 -4 -4 -10z"/>
<path d="M1626 7174 c-9 -22 -8 -24 9 -24 8 0 15 9 15 20 0 24 -15 27 -24 4z"/>
<path d="M1508 7149 c-25 -14 -22 -29 5 -29 13 0 28 -5 33 -10 8 -8 11 -2 12
20 1 32 -17 39 -50 19z"/>
<path d="M6177 6825 c2 -38 10 -88 18 -110 7 -22 16 -60 20 -85 12 -88 26
-128 48 -134 13 -3 28 2 38 13 10 10 31 25 48 32 17 8 33 19 35 26 5 12 -33
34 -81 48 -17 5 -23 14 -23 36 0 17 6 32 15 35 8 4 15 12 15 19 0 7 7 18 15
25 8 7 15 25 15 41 0 15 5 31 10 34 29 18 5 32 -80 44 -66 10 -90 18 -93 30
-2 9 -2 -15 0 -54z"/>
<path d="M2857 6343 c-4 -3 -7 -11 -7 -17 0 -6 5 -5 12 2 6 6 9 14 7 17 -3 3
-9 2 -12 -2z"/>
<path d="M2850 6277 c0 -3 5 -18 10 -32 9 -23 13 -25 25 -15 17 14 20 40 6 40
-5 0 -16 3 -25 6 -9 3 -16 4 -16 1z"/>
<path d="M1806 4654 c9 -37 10 -39 17 -15 3 11 -2 26 -10 32 -12 11 -13 8 -7
-17z"/>
<path d="M1725 4568 c-8 -19 -35 -25 -35 -7 0 5 -4 8 -10 4 -6 -4 -6 -15 0
-31 13 -33 13 -34 -6 -34 -14 0 -14 -3 -4 -15 7 -8 21 -15 32 -15 16 0 18 3 9
14 -8 10 -5 19 14 40 19 20 23 32 16 44 -9 16 -10 16 -16 0z"/>
<path d="M1842 4568 c-2 -14 -11 -18 -42 -18 -29 0 -40 -4 -40 -15 0 -11 11
-15 40 -15 37 0 40 -2 40 -29 0 -25 4 -29 36 -34 24 -4 44 -1 58 8 19 14 18
15 -21 15 -48 0 -60 12 -66 65 -2 22 -4 32 -5 23z"/>
<path d="M1600 4489 c0 -5 5 -7 10 -4 6 3 10 8 10 11 0 2 -4 4 -10 4 -5 0 -10
-5 -10 -11z"/>
<path d="M1624 4469 c-10 -17 13 -36 27 -22 12 12 4 33 -11 33 -5 0 -12 -5
-16 -11z"/>
<path d="M1523 4305 c0 -27 2 -38 4 -22 2 15 2 37 0 50 -2 12 -4 0 -4 -28z"/>
<path d="M1410 4199 c0 -5 5 -7 10 -4 6 3 10 8 10 11 0 2 -4 4 -10 4 -5 0 -10
-5 -10 -11z"/>
<path d="M2185 4150 c4 -6 11 -8 16 -5 14 9 11 15 -7 15 -8 0 -12 -5 -9 -10z"/>
<path d="M2385 3850 c3 -5 8 -10 11 -10 2 0 4 5 4 10 0 6 -5 10 -11 10 -5 0
-7 -4 -4 -10z"/>
<path d="M2344 3829 c-10 -17 13 -36 27 -22 12 12 4 33 -11 33 -5 0 -12 -5
-16 -11z"/>
<path d="M2692 3280 c0 -14 2 -19 5 -12 2 6 2 18 0 25 -3 6 -5 1 -5 -13z"/>
<path d="M2660 3230 c0 -5 7 -10 15 -10 8 0 15 5 15 10 0 6 -7 10 -15 10 -8 0
-15 -4 -15 -10z"/>
<path d="M5302 3005 c-93 -49 -173 -75 -237 -75 l-40 -1 35 -29 c31 -27 41
-30 105 -30 38 0 113 -6 165 -14 52 -7 104 -13 115 -13 11 0 44 -3 72 -7 l53
-8 -4 31 c-3 26 0 31 18 31 12 0 31 6 41 14 18 13 18 14 -2 31 -12 10 -19 24
-16 31 3 8 -2 14 -11 14 -16 0 -57 19 -66 32 -3 3 -46 8 -97 10 -78 3 -98 1
-131 -17z m198 -145 c0 -5 -2 -10 -4 -10 -3 0 -8 5 -11 10 -3 6 -1 10 4 10 6
0 11 -4 11 -10z"/>
<path d="M5614 2835 c-4 -8 -11 -12 -18 -8 -6 4 -5 -1 3 -10 14 -18 47 -24 36
-8 -3 5 -1 12 5 16 15 9 12 25 -5 25 -9 0 -18 -7 -21 -15z"/>
<path d="M9247 2634 c-15 -15 8 -24 62 -24 36 0 63 5 69 13 9 10 -2 13 -56 15
-38 2 -71 0 -75 -4z"/>
<path d="M10960 2331 c0 -5 11 -8 25 -7 38 4 43 16 7 16 -18 0 -32 -4 -32 -9z"/>
<path d="M10748 2303 c7 -3 16 -2 19 1 4 3 -2 6 -13 5 -11 0 -14 -3 -6 -6z"/>
<path d="M10865 2300 c-3 -5 -24 -10 -45 -10 -35 0 -70 -19 -38 -21 7 0 37 -2
66 -4 38 -3 52 0 52 10 0 19 -27 39 -35 25z"/>
<path d="M11111 2283 c7 -10 15 -20 16 -22 2 -2 3 5 3 17 0 14 -6 22 -16 22
-14 0 -15 -3 -3 -17z"/>
<path d="M698 2173 c7 -3 16 -2 19 1 4 3 -2 6 -13 5 -11 0 -14 -3 -6 -6z"/>
<path d="M3480 2111 c-13 -25 -13 -91 0 -91 6 0 10 18 10 39 0 22 5 43 10 46
6 3 10 10 10 16 0 16 -19 10 -30 -10z"/>
<path d="M660 2085 c0 -8 5 -15 10 -15 6 0 10 7 10 15 0 8 -4 15 -10 15 -5 0
-10 -7 -10 -15z"/>
<path d="M408 1933 c6 -2 18 -2 25 0 6 3 1 5 -13 5 -14 0 -19 -2 -12 -5z"/>
<path d="M500 1925 c0 -8 5 -15 10 -15 6 0 10 7 10 15 0 8 -4 15 -10 15 -5 0
-10 -7 -10 -15z"/>
<path d="M600 1930 c0 -5 7 -10 15 -10 8 0 15 5 15 10 0 6 -7 10 -15 10 -8 0
-15 -4 -15 -10z"/>
<path d="M277 1819 c8 -8 16 -8 30 0 16 9 14 10 -11 11 -22 0 -27 -3 -19 -11z"/>
<path d="M8 1763 c7 -3 16 -2 19 1 4 3 -2 6 -13 5 -11 0 -14 -3 -6 -6z"/>
<path d="M3310 1660 c0 -22 4 -40 9 -40 12 0 20 36 14 60 -9 34 -23 22 -23
-20z"/>
<path d="M2890 1420 c0 -5 9 -10 20 -10 11 0 20 5 20 10 0 6 -9 10 -20 10 -11
0 -20 -4 -20 -10z"/>
<path d="M2897 1373 c3 -7 6 -13 8 -13 1 0 7 6 13 13 8 10 6 13 -7 13 -11 0
-17 -6 -14 -13z"/>
</g>
</svg>
